<svg width="20" height="34" viewBox="0 0 20 34" fill="none" xmlns="http://www.w3.org/2000/svg">
<path d="M3.91382 24.8068H1V19.4734M2.45691 6.48792L1.94699 7.02899L3.11252 8.2657L4.49659 6.7971L1 3.08696V19.4734M2.74829 9.11594V16.3816L5.29789 19.087M1.94699 17.9275L6.53626 22.7971M4.27805 23.9565L5.07935 24.8068L4.27805 25.657M1 19.4734L3.4039 22.0242M3.11252 20.401L5.44358 17.9275M4.27805 16.6135L1.94699 19.087M9.45008 14.5266L9.96 13.9855L10.4699 14.5266M9.08585 13.8309L8.50309 13.2126L9.23155 12.4396L9.96 13.2126L10.6885 12.4396L11.4169 13.2126L10.8341 13.8309M9.96 10.1208L9.23155 10.8937L9.96 11.6667L10.6885 10.8937L9.96 10.1208ZM9.96 10.1208L8.72163 8.80676V3.8599L9.96 2.54589M9.96 10.1208L11.1984 8.80676V3.8599L9.96 2.54589M9.96 2.54589L9.23155 1.77295L9.96 1L10.6885 1.77295L9.96 2.54589ZM8.86732 23.9565L9.66862 23.1063L8.64878 22.0242L9.96 20.6328L11.2712 22.0242L10.2514 23.1063L11.0527 23.9565M8.86732 23.9565L7.04618 25.8889L6.02634 24.8068L7.04618 23.7246L8.74493 25.5271M8.86732 23.9565L7.62894 22.6425M8.74493 25.5271L9.66862 26.5072L8.64878 27.5894L9.96 28.9807L11.2712 27.5894L10.2514 26.5072L11.1751 25.5271M8.74493 25.5271L7.62894 26.7113M7.33756 27.8985L6.7548 27.2802L5.66211 28.4396L9.96 33L14.2579 28.4396L13.1652 27.2802L12.5824 27.8985M16.0062 24.8068H18.92V19.4734M17.4631 6.48792L17.973 7.02899L16.8075 8.2657L15.4234 6.7971L18.92 3.08696V19.4734M17.1717 9.11594V16.3816L16.2976 17.3092M16.2976 17.3092L15.0956 18.5845M16.2976 17.3092L15.642 16.6135M16.2976 17.3092L17.4267 18.5072M15.0956 18.5845L14.6221 19.087M15.0956 18.5845L16.2247 19.7826M15.0956 18.5845L14.4764 17.9275M17.973 17.9275L17.4267 18.5072M17.4267 18.5072L16.2247 19.7826M17.4267 18.5072L17.973 19.087M16.2247 19.7826L13.3837 22.7971M16.2247 19.7826L16.8075 20.401M15.642 23.9565L14.8407 24.8068L15.642 25.657M18.92 19.4734L16.5161 22.0242M11.0527 23.9565L11.854 24.8068M11.0527 23.9565L12.2911 22.6425M11.854 24.8068L12.8738 25.8889L13.8937 24.8068L12.8738 23.7246L11.854 24.8068ZM11.854 24.8068L11.1751 25.5271M11.1751 25.5271L12.2911 26.7113M9.96 20.2464L9.01301 19.2415L8.21171 20.0918L8.50309 20.401L7.04618 21.9469L5.88065 20.7101L8.50309 17.9275V16.9227L9.96 15.3768L11.4169 16.9227V17.9275L14.0393 20.7101L12.8738 21.9469L11.4169 20.401L11.7083 20.0918L10.907 19.2415L9.96 20.2464Z" stroke="#B7B7B7" stroke-width="0.4"/>
</svg>
