<svg width="183" height="32" viewBox="0 0 183 32" fill="none" xmlns="http://www.w3.org/2000/svg">
<g clip-path="url(#clip0_3788_368)">
<mask id="mask0_3788_368" style="mask-type:luminance" maskUnits="userSpaceOnUse" x="0" y="0" width="183" height="32">
<path d="M0 0H183V31.3714H0V0Z" fill="white"/>
</mask>
<g mask="url(#mask0_3788_368)">
<path d="M90.5225 27.4304C90.5225 29.7872 88.6533 31.0159 86.29 31.0159H61.4987C59.1354 31.0159 55.7956 31.3688 54.0767 31.3714C52.3565 31.3753 51.9369 30.2172 53.7761 29.0578C56.4113 27.3977 56.6008 24.8122 56.6008 22.4541V3.43779C56.5995 1.0797 59.0125 0 61.3758 0H86.29C88.6533 0 90.5225 1.0797 90.5225 3.43779V27.4304Z" fill="#9275ff"/>
<path d="M64.2712 24.5084V6.36399H65.845V24.5111H64.2712V24.5084ZM75.8982 24.5084V7.67244H69.122V6.36269H84.2326V7.67244H77.4577V24.5084H75.8982ZM16.1906 23.2301C15.1675 23.7604 14.0909 24.1801 12.9789 24.4823C11.9525 24.7589 10.8944 24.9008 9.83132 24.9045C8.82224 24.91 7.81749 24.7722 6.84712 24.4954C5.91286 24.2272 5.02476 23.8186 4.21322 23.2837C2.90627 22.4492 1.83622 21.2923 1.10615 19.9243C0.367928 18.5436 -0.0122818 16.9999 0.000302524 15.4343C0.000302524 14.216 0.242124 13.0343 0.728381 11.8867C1.20513 10.7546 1.90943 9.73267 2.79759 8.88417C3.71259 7.99008 4.79752 7.28945 5.98963 6.82149C7.2152 6.3486 8.51903 6.11134 9.83263 6.12217C10.8739 6.12843 11.91 6.26992 12.9149 6.54307C13.9724 6.82411 15.0651 7.24893 16.1919 7.82146V9.32598C14.9697 8.67764 13.8338 8.19792 12.7842 7.88812C11.8107 7.58813 10.7989 7.43052 9.78034 7.42017C8.9307 7.42017 8.12027 7.53519 7.34906 7.76264C6.5763 7.99226 5.84034 8.33119 5.16352 8.76914C4.06124 9.50261 3.15842 10.4984 2.53616 11.6671C1.90981 12.8467 1.58809 14.1641 1.60025 15.4996C1.60025 16.5636 1.80155 17.595 2.20414 18.5936C2.59629 19.5766 3.17797 20.4733 3.91519 21.2341C4.65517 21.9966 5.54842 22.5936 6.53602 22.9856C7.56808 23.3959 8.66975 23.6028 9.78034 23.5948C10.7254 23.5948 11.7201 23.4379 12.7646 23.1268C13.809 22.8157 14.9514 22.336 16.1906 21.6889V23.2301ZM19.1552 24.579V6.43327H20.6113V14.8251H32.7063V6.43327H34.1755V24.579H32.705V16.1087H20.61V24.579H19.1552ZM38.4669 24.579V6.43327H48.3228V7.59924H39.9231V14.799H48.0509V15.9663H39.9231V23.3595H48.5319V24.579H38.4669ZM113.545 23.1412C112.426 23.7032 111.343 24.1215 110.294 24.4C109.281 24.6721 108.236 24.8118 107.186 24.8156C106.177 24.8211 105.172 24.6833 104.202 24.4065C103.268 24.1378 102.38 23.7288 101.569 23.1935C100.262 22.3592 99.1913 21.2022 98.4608 19.8341C97.7225 18.4539 97.3423 16.9106 97.355 15.3454C97.355 14.1284 97.5981 12.9455 98.0844 11.7991C98.5602 10.6668 99.2636 9.64439 100.151 8.79528C101.061 7.89595 102.146 7.19223 103.338 6.72738C104.566 6.25791 105.871 6.02292 107.186 6.03459C108.2 6.03459 109.234 6.17446 110.289 6.45419C111.417 6.76437 112.509 7.19288 113.547 7.73257V9.23709C112.324 8.58875 111.187 8.11034 110.139 7.79924C109.165 7.49925 108.154 7.34163 107.135 7.33128C106.285 7.33128 105.475 7.44631 104.704 7.67506C103.931 7.90427 103.195 8.24276 102.518 8.68025C101.416 9.41409 100.513 10.4103 99.8908 11.5795C99.264 12.759 98.9419 14.0764 98.9536 15.412C98.9536 16.4761 99.1549 17.5061 99.5588 18.506C99.951 19.4877 100.533 20.3844 101.269 21.1452C102.009 21.9077 102.902 22.5046 103.889 22.8967C104.9 23.302 105.99 23.5059 107.16 23.5059C107.914 23.5059 108.705 23.4065 109.534 23.2078C110.42 22.9884 111.284 22.6887 112.115 22.3124V17.4224H108.279V16.1519H113.545V23.1412ZM117.459 6.34439H121.881C123.813 6.34439 125.296 6.73522 126.328 7.51689C127.36 8.29987 127.875 9.4214 127.875 10.8828C127.875 11.9991 127.588 12.9232 127.01 13.6592C126.435 14.3938 125.564 14.9467 124.404 15.3192C125.055 15.6931 125.611 16.212 126.028 16.8355L131.035 24.4875H129.383L126.483 20.0263C126.008 19.2937 125.514 18.5737 125.001 17.8669C124.584 17.3009 124.255 16.8956 124.012 16.6538C123.691 16.3349 123.266 16.1087 122.738 15.9728C122.209 15.8395 121.433 15.7715 120.412 15.7715H118.915V24.4875H117.46L117.459 6.34439ZM118.915 7.56264V14.5284H120.034C121.421 14.5284 122.383 14.4931 122.921 14.4238C123.386 14.3735 123.842 14.2559 124.273 14.0748C124.94 13.7807 125.442 13.369 125.776 12.8422C126.108 12.3154 126.277 11.6618 126.277 10.8828C126.277 9.82923 125.902 9.01096 125.151 8.43189C124.401 7.85283 123.337 7.56264 121.959 7.56264H118.915ZM131.308 15.3454C131.308 14.1271 131.55 12.9481 132.036 11.8109C132.519 10.6787 133.222 9.65364 134.104 8.79528C135.911 7.0306 138.34 6.04746 140.866 6.05812C142.157 6.05812 143.382 6.2921 144.539 6.75875C145.694 7.22436 146.745 7.91685 147.628 8.79528C148.519 9.65432 149.229 10.6838 149.715 11.8226C150.191 12.9598 150.432 14.1794 150.424 15.4094C150.426 16.3459 150.288 17.2774 150.013 18.1727C149.741 19.0618 149.331 19.9026 148.798 20.6641C147.929 21.9568 146.751 23.0111 145.37 23.7307C143.979 24.4546 142.432 24.8266 140.865 24.8143C139.601 24.8175 138.348 24.5752 137.177 24.1006C136.026 23.6409 134.979 22.9526 134.101 22.0772C133.209 21.1967 132.502 20.1471 132.02 18.9897C131.545 17.8338 131.303 16.5952 131.308 15.3454ZM132.908 15.4107C132.908 16.4747 133.109 17.5061 133.513 18.5047C133.905 19.4877 134.487 20.3831 135.223 21.1452C135.962 21.8903 136.842 22.4808 137.811 22.8824C138.778 23.2931 139.817 23.5047 140.867 23.5046C141.919 23.5133 142.961 23.3086 143.931 22.9028C144.901 22.4971 145.779 21.8987 146.511 21.1439C147.258 20.395 147.846 19.5037 148.241 18.523C148.64 17.5337 148.843 16.4762 148.838 15.4094C148.845 14.3516 148.644 13.3027 148.247 12.322C147.847 11.3464 147.257 10.4603 146.51 9.71551C145.769 8.96299 144.888 8.36341 143.915 7.95087C142.952 7.5385 141.915 7.32722 140.867 7.32997C139.826 7.3279 138.794 7.53689 137.836 7.94433C136.858 8.35977 135.971 8.96132 135.223 9.71551C134.481 10.4528 133.896 11.3334 133.505 12.3037C133.106 13.2907 132.903 14.3461 132.908 15.4107ZM154.924 16.9662C154.924 18.9139 155.471 20.4589 156.562 21.6053C157.655 22.7516 159.115 23.3242 160.945 23.3242C162.774 23.3242 164.235 22.7516 165.328 21.604C166.419 20.4589 166.967 18.9139 166.967 16.9675V6.34308H168.488V16.8891C168.488 19.3282 167.807 21.2628 166.447 22.6928C165.085 24.1255 163.251 24.8405 160.945 24.8405C158.648 24.8405 156.822 24.1268 155.471 22.7007C154.118 21.2733 153.442 19.3361 153.442 16.8891V6.34308H154.924V16.9662ZM172.584 6.34308H177.006C178.982 6.34308 180.476 6.75352 181.487 7.57572C182.496 8.39791 183.002 9.60832 183.002 11.2083C183.002 12.6775 182.515 13.8526 181.544 14.7297C180.573 15.6068 179.272 16.046 177.644 16.046H174.041V24.4901H172.584V6.34308ZM174.04 7.56264V14.7872H176.811C178.38 14.7872 179.536 14.4918 180.283 13.8984C181.028 13.3075 181.402 12.3834 181.402 11.1298C181.402 9.96256 181.034 9.07632 180.302 8.47111C179.57 7.86459 178.497 7.56134 177.084 7.56134L174.04 7.56264Z" fill="white"/>
</g>
</g>
<defs>
<clipPath id="clip0_3788_368">
<rect width="183" height="31.3714" fill="white"/>
</clipPath>
</defs>
</svg>
