<svg width="19" height="19" viewBox="0 0 19 19" fill="none" xmlns="http://www.w3.org/2000/svg">
<path d="M5.70192 15.861V7.04911H2.77303V15.861H5.70192ZM4.23786 5.84529C5.25921 5.84529 5.89496 5.16863 5.89496 4.32306C5.87592 3.4584 5.25925 2.80054 4.25725 2.80054C3.25539 2.80054 2.60025 3.45841 2.60025 4.32306C2.60025 5.16868 3.23583 5.84529 4.21876 5.84529H4.2378H4.23786Z" fill="#FAFAFA"/>
<path d="M7.32159 15.861H10.2505V10.94C10.2505 10.6767 10.2695 10.4136 10.3469 10.2253C10.5586 9.69912 11.0405 9.15414 11.8496 9.15414C12.9094 9.15414 13.3334 9.96221 13.3334 11.1468V15.861H16.2621V10.8083C16.2621 8.10166 14.8172 6.84229 12.8901 6.84229C11.3101 6.84229 10.6164 7.72546 10.231 8.32699H10.2505V7.049H7.32166C7.36009 7.87585 7.32166 15.8609 7.32166 15.8609L7.32159 15.861Z" fill="#FAFAFA"/>
</svg>
