<svg width="149" height="55" viewBox="0 0 149 55" fill="none" xmlns="http://www.w3.org/2000/svg">
<path d="M54.5607 19.2676L60.9686 36.4084H57.0681L55.7709 32.5757H49.3645L48.0304 36.4084H44.2273L50.7089 19.2676H54.5607ZM54.7774 29.7838L52.6252 23.4924H52.578L50.3448 29.7809L54.7774 29.7838ZM65.323 23.998V25.7227H65.3967C65.783 25.0446 66.3637 24.4948 67.0625 24.1483C67.7209 23.8266 68.4435 23.6578 69.1763 23.6545C69.9415 23.6294 70.704 23.7561 71.4199 24.0275C71.9625 24.2449 72.4383 24.6013 72.7996 25.0608C73.1546 25.5411 73.3965 26.0954 73.5072 26.6823C73.6487 27.3751 73.7165 28.0768 73.7106 28.7829V36.4187H70.3158V29.402C70.3158 28.377 70.1556 27.6125 69.8352 27.1083C69.5149 26.6042 68.9468 26.3521 68.1312 26.3521C67.2025 26.3521 66.5357 26.6273 66.1308 27.1776C65.7259 27.7279 65.5181 28.636 65.5073 29.9017V36.4069H62.08V24.0245L65.323 23.998ZM87.7263 37.3238C87.5819 37.9812 87.2811 38.5945 86.8492 39.1104C86.3186 39.7221 85.67 40.2012 84.9034 40.5137C83.82 40.956 82.6599 41.1373 81.4953 41.1034C80.8684 41.1018 80.2439 41.0256 79.635 40.8764C79.0271 40.7279 78.4448 40.4894 77.9074 40.1688C77.3919 39.8536 76.9496 39.4319 76.6102 38.932C76.2545 38.3917 76.0517 37.7652 76.0235 37.1189H79.408C79.4585 37.3958 79.5684 37.6585 79.7303 37.8889C79.8921 38.1192 80.1021 38.3116 80.3455 38.453C80.8418 38.7088 81.394 38.837 81.9523 38.8259C82.9124 38.8259 83.6126 38.538 84.0529 37.9621C84.5105 37.329 84.7354 36.5573 84.6897 35.7775V34.1324H84.6425C84.2895 34.775 83.7369 35.2852 83.0682 35.5858C82.3945 35.8807 81.6619 36.0546 80.9204 36.0531C80.0923 36.0736 79.2705 35.9047 78.5176 35.5593C77.8646 35.2528 77.2937 34.7956 76.8519 34.2253C76.4066 33.628 76.0849 32.948 75.9056 32.2249C75.7021 31.4363 75.6004 30.6255 75.6048 29.8103C75.5977 29.0255 75.7101 28.2441 75.938 27.4931C76.1547 26.7796 76.4981 26.1133 76.9581 25.5251C77.4071 24.9563 77.9758 24.4933 78.6238 24.169C79.3372 23.8211 80.1244 23.6486 80.9175 23.6648C81.6573 23.6514 82.3909 23.8025 83.0652 24.1071C83.7227 24.4535 84.2622 24.9886 84.613 25.6445H84.6602V23.9906H87.9032V35.6109C87.9017 36.2005 87.8413 36.7607 87.7234 37.3208L87.7263 37.3238ZM83.0579 33.1963C83.4164 33.0131 83.7289 32.751 83.9718 32.4298C84.2221 32.1044 84.4054 31.7327 84.5113 31.336C84.632 30.9193 84.6926 30.4874 84.6912 30.0536C84.6941 29.5671 84.6469 29.0777 84.5482 28.6001C84.4627 28.1697 84.3005 27.7599 84.0676 27.3869C83.8462 27.0375 83.5412 26.7487 83.1802 26.5467C82.7508 26.3234 82.2709 26.2153 81.7872 26.2327C81.3568 26.218 80.9322 26.3182 80.549 26.5202C80.2057 26.7113 79.9103 26.978 79.6851 27.3C79.4473 27.6406 79.2763 28.0233 79.181 28.4276C79.0752 28.8644 79.0227 29.3123 79.0247 29.7617C79.0247 30.2097 79.0691 30.6566 79.1574 31.0957C79.238 31.5153 79.3928 31.9171 79.6144 32.2824C79.8287 32.6321 80.1208 32.9277 80.4679 33.1462C80.8703 33.385 81.3346 33.5 81.8019 33.4794C82.2362 33.4867 82.6659 33.3896 83.0549 33.1963H83.0579ZM94.0207 33.4322C94.5317 33.9275 95.2673 34.1751 96.2274 34.1751C96.8613 34.1899 97.4804 34.0277 98.0052 33.6592C98.4253 33.4086 98.7481 33.0253 98.9191 32.5654H101.92C101.429 34.0543 100.693 35.119 99.7137 35.7598C98.6326 36.4243 97.3808 36.7579 96.1124 36.7194C95.2107 36.733 94.3146 36.5744 93.4723 36.2521C92.7153 35.9605 92.0322 35.5049 91.472 34.9181C90.9162 34.3228 90.4873 33.6207 90.2116 32.8543C89.9077 32.0083 89.7579 31.1146 89.7694 30.2157C89.7665 29.3309 89.9259 28.4531 90.2396 27.6257C90.5234 26.8539 90.9628 26.1486 91.5306 25.5537C92.0984 24.9588 92.7824 24.487 93.5401 24.1675C94.3566 23.8233 95.2354 23.6517 96.1213 23.6634C97.0795 23.6413 98.0258 23.852 98.8823 24.2766C99.6449 24.667 100.306 25.2297 100.813 25.9202C101.326 26.627 101.698 27.4264 101.907 28.2743C102.133 29.1765 102.214 30.1081 102.147 31.0353H93.1849C93.234 32.1379 93.5141 32.9369 94.0251 33.4322H94.0207ZM97.8755 26.9019C97.4667 26.4578 96.8465 26.2357 96.0151 26.2357C95.5479 26.2209 95.082 26.3138 94.659 26.5128C94.3258 26.6602 94.031 26.9108 93.7952 27.1968C93.588 27.4511 93.4327 27.7435 93.3382 28.0576C93.2574 28.3236 93.2051 28.5973 93.1819 28.8743H98.7246C98.6287 28.1372 98.3339 27.4695 97.874 26.9034L97.8755 26.9019ZM107.361 19.2661V36.4069H103.95V19.2676L107.361 19.2661ZM113.847 19.2661V33.2361H122.199V36.4054H110.079V19.2676L113.847 19.2661ZM123.612 22.0772V19.2735H127.02V22.0802L123.612 22.0772ZM127.02 23.998V36.4099H123.612V23.998H127.02ZM132.338 33.3231C132.486 33.5796 132.685 33.8007 132.925 33.9717C133.176 34.145 133.456 34.2714 133.752 34.3447C134.07 34.4258 134.397 34.4654 134.725 34.4626C134.979 34.4613 135.233 34.4331 135.481 34.3786C135.733 34.3273 135.976 34.2383 136.202 34.1147C136.415 33.9967 136.6 33.8325 136.741 33.6341C136.893 33.4119 136.969 33.1467 136.958 32.8779C136.958 32.3669 136.618 31.9822 135.938 31.7237C135.01 31.4002 134.06 31.1441 133.095 30.9572C132.599 30.8461 132.115 30.7135 131.641 30.5592C131.195 30.4191 130.771 30.2172 130.381 29.9592C130.018 29.7173 129.715 29.3968 129.493 29.0217C129.256 28.6017 129.141 28.1239 129.16 27.6419C129.132 26.9555 129.293 26.2744 129.627 25.674C129.93 25.171 130.355 24.7534 130.864 24.4608C131.4 24.1558 131.985 23.9449 132.592 23.8373C133.241 23.7166 133.9 23.6564 134.56 23.6575C135.217 23.6557 135.873 23.7199 136.517 23.8491C137.116 23.9641 137.689 24.1822 138.213 24.4977C138.711 24.8046 139.134 25.2192 139.451 25.7109C139.802 26.2881 140.003 26.9437 140.038 27.6184H136.795C136.803 27.3496 136.738 27.0837 136.607 26.8488C136.476 26.614 136.284 26.4189 136.052 26.2843C135.558 26.0477 135.015 25.9334 134.468 25.9512C134.262 25.9526 134.051 25.9659 133.845 25.988C133.634 26.01 133.427 26.0627 133.232 26.1443C133.053 26.219 132.893 26.3329 132.764 26.4774C132.629 26.6514 132.558 26.8695 132.573 27.0906C132.564 27.3766 132.688 27.6508 132.906 27.8336C133.165 28.0444 133.463 28.2031 133.783 28.3009C134.188 28.4365 134.601 28.547 135.021 28.634C135.486 28.7293 135.958 28.834 136.436 28.948C136.927 29.0586 137.412 29.1942 137.89 29.3548C138.339 29.5033 138.764 29.7179 139.15 29.9917C139.516 30.2563 139.819 30.598 140.038 30.9926C140.274 31.4396 140.389 31.9407 140.371 32.446C140.397 33.1135 140.246 33.7761 139.933 34.3661C139.619 34.956 139.155 35.4523 138.587 35.804C138.031 36.1504 137.417 36.3907 136.774 36.5116C136.094 36.6478 135.403 36.716 134.71 36.715C134 36.7152 133.292 36.6426 132.596 36.4983C131.943 36.371 131.32 36.1209 130.76 35.7613C130.217 35.4266 129.762 34.9697 129.426 34.4272C129.057 33.7963 128.865 33.0799 128.862 32.3635H132.105C132.103 32.6983 132.191 33.0277 132.359 33.3172L132.338 33.3231ZM148.996 23.998V26.2784H146.498V32.4254C146.498 33.0013 146.595 33.386 146.789 33.5796C146.982 33.7732 147.367 33.869 147.943 33.867L148.496 33.8435C148.665 33.8281 148.833 33.8034 149 33.7698V36.4231C148.682 36.4745 148.362 36.507 148.04 36.5204C147.687 36.5361 147.343 36.544 147.009 36.544C146.506 36.5454 146.005 36.51 145.508 36.4379C145.07 36.3771 144.647 36.2345 144.261 36.0177C143.898 35.8084 143.602 35.5018 143.406 35.1303C143.178 34.6594 143.07 34.1393 143.092 33.6165V26.2814H141.028V24.0009H143.092V20.2759H146.5V23.9965L148.996 23.998ZM31.7874 23.2432C34.0477 23.6678 35.6308 24.6151 36.5369 26.0853C37.4538 27.5545 37.9147 29.8737 37.9196 33.043C37.9196 39.3276 36.0303 44.4707 32.2517 48.4724C28.4731 52.4721 23.641 54.4719 17.7555 54.4719C15.4486 54.4735 13.1613 54.0492 11.0085 53.2204C8.92004 52.4408 7.00851 51.2515 5.38634 49.7224C3.72459 48.2514 2.35399 46.4812 1.34585 44.5041C0.46971 42.7589 0.00908991 40.8347 0 38.8819C0 36.7376 0.460901 35.0797 1.3827 33.9083C2.3045 32.7359 3.7614 31.9311 5.75339 31.4938C5.43558 30.7745 5.16043 30.0372 4.92937 29.2856C4.7816 28.8382 4.69338 28.3733 4.66698 27.9029C4.66698 26.7806 5.25908 25.6337 6.44327 24.4623C7.62746 23.2899 8.74286 22.7037 9.78946 22.7037C10.273 22.7096 10.7525 22.7917 11.2105 22.947C11.8098 23.1566 12.3862 23.4267 12.9308 23.7533C11.0085 18.3188 9.61159 14.1225 8.73991 11.1645C7.86823 8.20847 7.43337 6.17176 7.43533 5.05439C7.43533 3.50758 7.82842 2.27917 8.61461 1.36916C9.02211 0.915103 9.5253 0.557141 10.0879 0.321093C10.6505 0.0850453 11.2584 -0.0232061 11.8679 0.00414581C14.2117 0.00414581 17.1766 5.24062 20.7626 15.7136C21.3847 17.508 21.8584 18.8927 22.1836 19.8676C22.4588 19.0951 22.845 17.9979 23.3423 16.5759C26.941 6.20026 30.0366 1.01243 32.6291 1.01243C33.2007 0.988688 33.7705 1.09207 34.2974 1.31511C34.8243 1.53815 35.2952 1.8753 35.676 2.30226C36.4259 3.16215 36.8008 4.31538 36.8008 5.76196C36.8008 6.85869 36.3831 8.86542 35.5478 11.7822C34.7125 14.6989 33.4531 18.5198 31.7697 23.2447L31.7874 23.2432ZM5.00308 38.5031C5.35293 38.9276 5.84429 39.5516 6.47717 40.3752C8.12423 42.6355 9.645 43.7656 11.0395 43.7656C11.5026 43.7687 11.9521 43.6097 12.3102 43.316C12.4688 43.2136 12.6019 43.0763 12.6992 42.9146C12.7966 42.7528 12.8556 42.571 12.8718 42.3829C12.8718 42.0095 12.6261 41.3854 12.1347 40.5108C11.5233 39.4763 10.8354 38.4888 10.0769 37.5567C9.32662 36.5603 8.49376 35.6288 7.58717 34.7721C6.92874 34.1874 6.39905 33.8951 5.99809 33.8951C5.12641 33.8951 4.32156 34.3619 3.58353 35.2954C2.84564 36.2386 2.45614 37.4076 2.4809 38.6048C2.50948 39.7833 2.7642 40.9453 3.23122 42.0276C3.80065 43.3872 4.54978 44.6644 5.45857 45.8249C6.88992 47.7614 8.7709 49.3206 10.9393 50.3681C13.2016 51.4414 15.6806 51.9801 18.1844 51.9424C20.4942 51.9835 22.7849 51.5174 24.8951 50.5771C27.0052 49.6368 28.8834 48.245 30.3973 46.5C33.6757 42.8718 35.3149 38.3267 35.3149 32.8647C35.3482 31.5264 35.2225 30.1888 34.9405 28.8802C34.7807 28.0453 34.3464 27.2878 33.7066 26.728C32.6846 25.8809 30.6956 25.1193 27.7395 24.4432C24.7008 23.7612 21.595 23.4229 18.4807 23.4349C17.5835 23.4349 16.9477 23.5847 16.5732 23.8845C16.1998 24.1842 16.0131 24.6952 16.0131 25.4175C16.0131 27.1147 16.9604 28.3431 18.8551 29.1028C20.7498 29.8624 23.8174 30.2373 28.0579 30.2275H29.591C29.7509 30.2201 29.9104 30.2501 30.0568 30.3151C30.2032 30.3801 30.3324 30.4783 30.4342 30.6019C30.6786 30.9493 30.8271 31.3551 30.8646 31.7783C30.4401 32.1782 29.5654 32.6332 28.2407 33.1433C27.1745 33.5196 26.1574 34.023 25.2114 34.6424C23.7633 35.7061 22.5433 37.0495 21.6235 38.593C20.7849 39.8696 20.3128 41.3518 20.2585 42.8782C20.2945 43.8936 20.4905 44.8971 20.8393 45.8514C21.1093 46.546 21.304 47.2675 21.4201 48.0036V48.266L21.3464 48.605C20.2496 48.5304 19.3839 47.8881 18.749 46.6784C18.1142 45.4696 17.7967 43.8555 17.7967 41.836V41.497C17.6255 41.6534 17.4291 41.78 17.216 41.8714C17.0187 41.9481 16.8085 41.9861 16.5968 41.9834C16.3833 41.9845 16.1701 41.9658 15.96 41.9274C15.7322 41.8834 15.5068 41.8273 15.2849 41.7593C15.3576 42.0244 15.4137 42.2937 15.4529 42.5657C15.4855 42.7706 15.5042 42.9774 15.5089 43.1848C15.5116 43.6358 15.4161 44.0819 15.229 44.4923C15.0419 44.9026 14.7677 45.2673 14.4255 45.561C13.7248 46.2122 12.7992 46.5667 11.8429 46.5502C10.2705 46.5502 8.67505 45.7836 7.05649 44.2506C5.43695 42.7175 4.6262 41.2179 4.62423 39.7516C4.62066 39.5047 4.65243 39.2585 4.71858 39.0205C4.77572 38.8153 4.8843 38.6281 5.03403 38.4765L5.00308 38.5031ZM16.2268 39.3993C16.4506 39.3925 16.6701 39.337 16.8702 39.2367C17.0703 39.1364 17.2461 38.9937 17.3855 38.8185C17.7138 38.4837 17.9015 38.0359 17.9102 37.567C17.9102 37.0953 17.5678 35.9922 16.8828 34.2577C16.1767 32.4856 15.319 30.7776 14.3194 29.1529C13.7294 28.1062 12.985 27.1546 12.1112 26.33C11.3869 25.6952 10.7009 25.3777 10.0533 25.3777C9.52855 25.3777 8.94874 25.7069 8.31389 26.3654C7.67905 27.0238 7.36163 27.641 7.36163 28.2168C7.36163 28.8143 7.67266 29.7116 8.29473 30.9085C9.01446 32.2533 9.85365 33.5306 10.8022 34.725C11.7058 35.9837 12.747 37.1377 13.9066 38.1655C14.8893 38.9812 15.6627 39.389 16.2268 39.389V39.3993ZM19.8929 21.3313L15.8539 9.65062C14.8073 6.68474 13.9965 4.74533 13.4216 3.83237C12.8467 2.9204 12.2227 2.46539 11.5495 2.46736C11.3075 2.46282 11.0678 2.51466 10.8493 2.61879C10.6308 2.72293 10.4395 2.87648 10.2907 3.06731C9.9453 3.53002 9.77269 4.09896 9.80273 4.67555C9.80273 5.8224 10.2386 7.82225 11.1103 10.6751C11.9819 13.525 13.2914 17.2535 15.0387 21.8605C15.1753 21.5975 15.401 21.3916 15.6755 21.2798C16.0365 21.1535 16.4181 21.0965 16.8003 21.1117C16.9506 21.1117 17.2494 21.124 17.6965 21.1486C18.1436 21.1731 18.8773 21.2321 19.8973 21.3254L19.8929 21.3313ZM24.1177 32.6553C23.0956 32.6107 22.0777 32.4979 21.0707 32.3178C20.1345 32.149 19.215 31.8979 18.323 31.5675C18.72 32.3674 19.0748 33.1659 19.3873 33.9629C19.6838 34.7335 19.9344 35.5211 20.1376 36.3214C20.7106 35.5963 21.3369 34.9148 22.0112 34.2827C22.6663 33.682 23.371 33.1376 24.1177 32.6553ZM29.0913 22.5946C30.7619 18.0564 32.065 14.3073 33.0006 11.3473C33.9381 8.39911 34.4049 6.585 34.4009 5.90495C34.4374 5.30717 34.2723 4.71444 33.9322 4.22153C33.7808 4.02568 33.5847 3.86899 33.3603 3.76459C33.1358 3.6602 32.8897 3.61116 32.6424 3.62157C31.9544 3.62157 31.2434 4.20138 30.5093 5.361C29.7851 6.52063 28.9866 8.38486 28.1139 10.9537L24.3933 21.7795L29.0913 22.5946Z" fill="#FAFAFA"/>
</svg>
