<svg width="251" height="18" viewBox="0 0 251 18" fill="none" xmlns="http://www.w3.org/2000/svg">
<path fill-rule="evenodd" clip-rule="evenodd" d="M38.7826 17.2174H66.3884C67.6384 17.2174 68.651 16.1776 68.651 14.905V2.31361C68.651 1.04225 67.6384 0.00122452 66.3884 0.00122452H38.7826C37.5326 0.00122452 36.52 1.04225 36.52 2.31361V14.905C36.5213 16.1776 37.5326 17.2174 38.7826 17.2174ZM40.5376 3.34176H64.7596C65.1746 3.34176 65.5134 3.6892 65.5134 4.11256V13.1073C65.5134 13.5307 65.1746 13.8781 64.7596 13.8781H40.5376C40.1226 13.8781 39.7839 13.5307 39.7839 13.1073V4.11256C39.7839 3.68791 40.1226 3.34176 40.5376 3.34176Z" fill="#FAFAFA"/>
<path fill-rule="evenodd" clip-rule="evenodd" d="M0 17.2174H3.2626V13.1073H29.7446C31.0559 13.1073 32.1297 12.0084 32.1297 10.6662V2.44229C32.1297 1.10015 31.0559 0.00122452 29.7446 0.00122452H3.2626H2.38382H0V2.44229V10.6662V17.2174ZM3.2626 9.76548V3.34176H4.14012H25.4758H27.8608C28.4121 3.34176 28.8646 3.80373 28.8646 4.36992V8.73862C28.8646 9.30352 28.4133 9.76677 27.8608 9.76677H25.4758H4.14137L3.2626 9.76548Z" fill="#FAFAFA"/>
<path fill-rule="evenodd" clip-rule="evenodd" d="M72.9175 17.2174H76.1813V13.1074H99.7045L101.766 17.2174H105.293L103.2 13.0443C104.255 12.7934 105.046 11.8193 105.046 10.665V2.44106C105.046 1.09893 103.973 0 102.662 0H76.1813H75.3025H72.9175V2.44106V10.665V17.2174ZM76.1813 9.76555V3.34183H77.0589H98.3945H100.778C101.331 3.34183 101.783 3.80379 101.783 4.36998V8.73868C101.783 9.30358 101.332 9.76683 100.778 9.76683H98.3945H77.0589L76.1813 9.76555Z" fill="#FAFAFA"/>
<path fill-rule="evenodd" clip-rule="evenodd" d="M182.11 17.2174H185.374V10.279H209.344V17.2174H212.608V0H209.344V6.93972H185.374V0H182.11V17.2174Z" fill="#FAFAFA"/>
<path fill-rule="evenodd" clip-rule="evenodd" d="M149.229 17.2174H177.215V13.8331C177.136 13.8614 177.051 13.8769 176.964 13.8769H150.984C150.572 13.8769 150.23 13.5294 150.23 13.1061V4.11134C150.23 3.68798 150.57 3.34054 150.984 3.34054H176.964C177.051 3.34054 177.136 3.35727 177.215 3.38558V0H149.229C147.98 0 146.968 1.04102 146.968 2.31238V14.9038C146.968 16.1777 147.98 17.2174 149.229 17.2174Z" fill="#FAFAFA"/>
<path fill-rule="evenodd" clip-rule="evenodd" d="M217.628 17.2174H219.512H220.892H250.008V13.8769H220.892V10.279H250.008V6.93972H220.892V3.34183H250.008V0H220.892H219.512H217.628V17.2174Z" fill="#FAFAFA"/>
<path fill-rule="evenodd" clip-rule="evenodd" d="M114.084 4.88342V4.11134C114.084 3.68798 114.423 3.34054 114.837 3.34054H140.817C140.905 3.34054 140.99 3.35727 141.067 3.38558V0H113.082C111.832 0 110.819 1.04102 110.819 2.31238V3.34054V4.88213V7.96531C110.819 9.23667 111.832 10.2777 113.082 10.2777H115.464V10.3214C115.543 10.2944 115.627 10.2777 115.714 10.2777H137.05C137.465 10.2777 137.804 10.6251 137.804 11.0498V12.334V13.1061C137.804 13.5294 137.465 13.8769 137.05 13.8769H111.07C110.983 13.8769 110.898 13.8614 110.819 13.8331V17.2174H138.805C140.055 17.2174 141.067 16.1764 141.067 14.905V13.8769V12.3353V9.25211C141.067 7.97946 140.055 6.93844 138.805 6.93844H136.425V6.89469C136.345 6.923 136.261 6.93844 136.172 6.93844H114.835C114.422 6.93844 114.083 6.591 114.083 6.16636L114.084 4.88342Z" fill="#FAFAFA"/>
</svg>
