<svg width="547" height="550" viewBox="0 0 547 550" fill="none" xmlns="http://www.w3.org/2000/svg">
<g clip-path="url(#clip0_4016_29)">
<path d="M0.000118256 38.4C0.000118256 24.9588 -15.6158 15.6339 -13 10.5C-10.699 5.98411 -3.01577 -10.699 1.50012 -13C6.634 -15.6158 24.9589 3.33786e-05 38.4001 3.33786e-05H547V511.6C547 525.041 561.616 536.866 559 542C556.699 546.516 551.016 556.199 546.5 558.5C541.366 561.116 522.041 550 508.6 550H0.000118256V38.4Z" fill="url(#paint0_linear_4016_29)"/>
<circle cx="455" cy="289" r="303" fill="url(#paint1_linear_4016_29)"/>
</g>
<defs>
<linearGradient id="paint0_linear_4016_29" x1="1.3752e-05" y1="550" x2="658.22" y2="324.172" gradientUnits="userSpaceOnUse">
<stop stop-color="#F88686"/>
<stop offset="1" stop-color="#8691F8"/>
</linearGradient>
<linearGradient id="paint1_linear_4016_29" x1="720.868" y1="79.5736" x2="234.569" y2="178.412" gradientUnits="userSpaceOnUse">
<stop stop-color="#F88686"/>
<stop offset="1" stop-color="#8691F8"/>
</linearGradient>
<clipPath id="clip0_4016_29">
<rect width="547" height="550" fill="white"/>
</clipPath>
</defs>
</svg>
