<svg width="258" height="35" viewBox="0 0 258 35" fill="none" xmlns="http://www.w3.org/2000/svg">
<path d="M105.46 27.8097V19.5616H96.5685V27.8097H91.9473V7.21872H96.5685V15.4668H105.46V7.21872H110.081V27.8097H105.46Z" fill="#FAFAFA"/>
<path d="M128.639 17.4996V7.21872H133.27V22.7302C133.27 24.4217 132.851 25.694 132.003 26.5373C131.155 27.3807 129.892 27.8097 128.206 27.8097H120.099C118.409 27.8097 117.141 27.3856 116.296 26.5373C115.453 25.694 115.029 24.4217 115.029 22.7302V7.21872H119.66V22.0916C119.63 22.3079 119.651 22.5283 119.72 22.7353C119.79 22.9423 119.906 23.1305 120.061 23.2849C120.215 23.4393 120.403 23.5559 120.61 23.6254C120.817 23.6949 121.038 23.7155 121.254 23.6856H127.045C127.262 23.7155 127.482 23.6949 127.689 23.6254C127.896 23.5559 128.084 23.4393 128.239 23.2849C128.393 23.1305 128.51 22.9423 128.579 22.7353C128.649 22.5283 128.669 22.3079 128.639 22.0916V17.4996Z" fill="#FAFAFA"/>
<path d="M142.855 7.21872V23.6856H154.447V27.0736V27.8048H138.219V7.21872H142.855Z" fill="#FAFAFA"/>
<path d="M159.97 27.8097V11.372H153.477V7.21872H171.143V11.372H164.591V27.8097H159.97Z" fill="#FAFAFA"/>
<path d="M180.224 7.21872V15.4522H189.062V7.21872H193.703V27.8097H189.062V19.5713H180.224V27.8097H175.588V27.0833V7.94506V7.21872H180.224Z" fill="#FAFAFA"/>
<path d="M198.617 27.8097V7.21872H215.113V11.372H203.238V15.2913H212.539V19.4446H203.238V23.7149H215.113V27.8097H198.617Z" fill="#FAFAFA"/>
<path d="M87.161 27.8048H78.0208C77.3042 27.8048 76.4707 27.7658 75.5298 27.6829C74.5597 27.5932 73.6179 27.308 72.761 26.8445C71.8241 26.3346 71.0655 25.5504 70.5868 24.5972C70.025 23.5122 69.679 22.3285 69.568 21.1118C69.4378 19.9202 69.3694 18.7226 69.3633 17.5239C69.3696 16.3236 69.4379 15.1245 69.568 13.9312C69.6791 12.7098 70.0251 11.5214 70.5868 10.4312C71.0669 9.47935 71.8229 8.69445 72.7561 8.17905C73.613 7.71548 74.5549 7.43026 75.525 7.34059C76.4658 7.25772 77.2994 7.21872 78.016 7.21872H87.161V11.3476H78.0501C77.6157 11.3525 77.1822 11.39 76.7534 11.4598C76.2562 11.542 75.792 11.7615 75.4128 12.0935C74.9705 12.5 74.6498 13.0215 74.4866 13.5998C74.2603 14.2808 74.1259 14.989 74.0869 15.7057C74.0382 16.4612 74.0138 16.9341 74.0138 17.5386C74.0138 18.143 74.0382 18.6256 74.0869 19.3763C74.1249 20.0899 74.2594 20.795 74.4866 21.4725C74.6698 22.0409 75.0074 22.5472 75.4616 22.9349C75.842 23.2649 76.3057 23.4841 76.8021 23.5686C77.231 23.6384 77.6644 23.6758 78.0988 23.6807H87.161V27.8048Z" fill="#FAFAFA"/>
<path d="M62.6793 16.7976C62.4843 16.7196 54.0266 14.4333 54.0266 14.4333C53.7714 14.3724 53.5321 14.2577 53.3247 14.097C53.2759 14.058 53.1638 13.9459 53.1541 13.9361C52.9638 13.7256 52.8354 13.4666 52.783 13.1878C52.7306 12.9089 52.7562 12.621 52.857 12.3558C52.9579 12.0906 53.13 11.8583 53.3545 11.6848C53.5789 11.5112 53.847 11.4029 54.129 11.372C54.1875 11.372 54.2411 11.372 54.2996 11.372H64.7072V7.21872H54.1485C52.8218 7.21721 51.5386 7.69163 50.532 8.5558C49.5253 9.41996 48.862 10.6165 48.6626 11.9282C48.4632 13.2398 48.7408 14.5794 49.4451 15.7037C50.1494 16.828 51.2337 17.6624 52.5009 18.0553L52.7202 18.1138L52.9055 18.1674L53.1687 18.2357L54.4313 18.572L56.0107 19.001L56.2154 19.0546L57.712 19.4543C58.2823 19.6055 60.8757 20.4293 61.1243 20.4927L61.3826 20.5902C61.6657 20.71 61.9083 20.909 62.0812 21.1632C62.2541 21.4174 62.3501 21.716 62.3576 22.0233V22.1062C62.3463 22.5197 62.1757 22.9129 61.8814 23.2036C61.5871 23.4943 61.1918 23.66 60.7782 23.6661H48.8935V27.795H60.9342C62.2775 27.7941 63.5764 27.3141 64.5976 26.4414C65.6187 25.5687 66.2952 24.3604 66.5055 23.0336C66.7157 21.7069 66.446 20.3487 65.7447 19.203C65.0434 18.0573 63.9565 17.1992 62.6793 16.783V16.7976Z" fill="#FAFAFA"/>
<path d="M232.799 16.7976C232.604 16.7196 224.146 14.4333 224.146 14.4333C223.891 14.3724 223.652 14.2577 223.444 14.097C223.395 14.058 223.283 13.9459 223.273 13.9361C223.083 13.7256 222.955 13.4666 222.902 13.1878C222.85 12.9089 222.876 12.621 222.976 12.3558C223.077 12.0906 223.249 11.8583 223.474 11.6848C223.698 11.5112 223.966 11.4029 224.248 11.372C224.307 11.372 224.361 11.372 224.419 11.372H234.817V7.21872H224.268C222.941 7.21721 221.658 7.69163 220.651 8.5558C219.645 9.41996 218.981 10.6165 218.782 11.9282C218.583 13.2398 218.86 14.5794 219.565 15.7037C220.269 16.828 221.353 17.6624 222.62 18.0553L222.84 18.1138L223.025 18.1674L223.293 18.2357L224.551 18.572L226.135 19.001L226.34 19.0546L227.831 19.4543C228.402 19.6055 230.995 20.4293 231.244 20.4927L231.502 20.5902C231.785 20.71 232.028 20.909 232.201 21.1632C232.373 21.4174 232.469 21.716 232.477 22.0233V22.1062C232.467 22.5201 232.297 22.914 232.002 23.2049C231.708 23.4959 231.312 23.6612 230.898 23.6661H219.013V27.795H231.054C232.397 27.7941 233.696 27.3141 234.717 26.4414C235.738 25.5687 236.415 24.3604 236.625 23.0336C236.835 21.7069 236.565 20.3487 235.864 19.203C235.163 18.0573 234.076 17.1992 232.799 16.783V16.7976Z" fill="#FAFAFA"/>
<path d="M253.55 16.7976C253.351 16.7196 244.893 14.4333 244.893 14.4333C244.638 14.3723 244.398 14.2577 244.191 14.097C244.142 14.058 244.03 13.9459 244.02 13.9361C243.83 13.7256 243.702 13.4666 243.649 13.1878C243.597 12.9089 243.622 12.621 243.723 12.3558C243.824 12.0906 243.996 11.8583 244.221 11.6848C244.445 11.5112 244.713 11.4029 244.995 11.372C245.054 11.372 245.107 11.372 245.166 11.372H255.573V7.21872H245.015C243.692 7.22477 242.416 7.70302 241.415 8.56726C240.414 9.43149 239.755 10.6249 239.556 11.9322C239.357 13.2396 239.632 14.575 240.331 15.6977C241.029 16.8203 242.106 17.6565 243.367 18.0553L243.586 18.1138L243.772 18.1674L244.04 18.2356L245.298 18.572L246.882 19.001L247.087 19.0546L248.578 19.4543C249.149 19.6055 251.742 20.4293 251.991 20.4927L252.249 20.5902C252.532 20.71 252.774 20.909 252.947 21.1632C253.12 21.4174 253.216 21.716 253.224 22.0233V22.1062C253.214 22.5201 253.044 22.914 252.749 23.2049C252.454 23.4959 252.058 23.6612 251.644 23.6661H239.74V27.795H251.781C253.125 27.7952 254.424 27.3161 255.446 26.4437C256.468 25.5714 257.146 24.3631 257.357 23.036C257.568 21.709 257.298 20.3502 256.597 19.204C255.896 18.0578 254.809 17.1994 253.531 16.783L253.55 16.7976Z" fill="#FAFAFA"/>
<path d="M4.06086 30.4071L4.11448 30.4753L4.1681 30.5436L4.2266 30.6118L4.28997 30.6606L4.35334 30.7239L4.42159 30.7824L4.48984 30.836L4.55808 30.8897C8.32679 33.5634 12.8334 34.9997 17.4542 34.9997C22.0751 34.9997 26.5817 33.5634 30.3504 30.8897L30.4235 30.8409L30.4917 30.7824L30.56 30.7239L30.6136 30.6606L30.677 30.5972L30.7306 30.5289L30.7891 30.4656L30.8427 30.3924C33.2031 27.0526 34.601 23.1288 34.8839 19.0489C33.9826 20.4234 32.7763 21.5714 31.3589 22.4037C29.9416 23.2359 28.3513 23.73 26.7118 23.8474C25.0724 23.9649 23.4279 23.7025 21.9064 23.0808C20.3849 22.459 19.0273 21.4947 17.9393 20.2627C16.589 18.8003 16.0479 16.7578 14.4489 15.5001C13.2605 14.4746 11.8084 13.8028 10.2575 13.5606C8.7066 13.3185 7.11886 13.5159 5.6744 14.1303C1.56011 15.9388 0.136687 19.8142 0.838651 23.6702C0.897148 23.87 0.955645 24.0748 1.01902 24.2746C1.71134 26.4631 2.73737 28.5316 4.06086 30.4071Z" fill="#FAFAFA"/>
<path d="M14.8582 12.9119C18.5094 15.1055 18.6752 19.6147 23.0234 21.0332C28.9511 23.3634 35.2103 17.9768 34.2354 11.9808C34.1281 11.5665 34.0111 11.1521 33.8795 10.7378C33.1862 8.55178 32.1584 6.4864 30.8328 4.61508L30.7792 4.54196L30.7207 4.47371L30.667 4.40547L30.6329 4.37622C30.4038 4.19098 30.1454 4.01061 29.931 3.84C28.1711 2.64693 26.2508 1.70975 24.2275 1.05652C20.9372 0.00615854 17.4479 -0.265805 14.0346 0.262053C10.6213 0.78991 7.3772 2.10317 4.55789 4.09836L4.48964 4.14711L4.4214 4.2056L4.35315 4.2641L4.28978 4.33722L4.22641 4.40059L4.16791 4.46884L4.11429 4.53709L4.06067 4.61021C2.72938 6.48383 1.69666 8.55255 0.999323 10.7426C0.461441 12.4391 0.126006 14.1932 0 15.9684C3.05647 11.0887 10.1395 9.62145 14.8582 12.9119Z" fill="#FAFAFA"/>
</svg>
