<svg width="164" height="48" viewBox="0 0 164 48" fill="none" xmlns="http://www.w3.org/2000/svg">
<path d="M133.301 7.69749C135.409 7.69749 137.059 5.95639 137.059 3.84874C137.059 1.7411 135.317 0 133.301 0C131.285 0 129.544 1.7411 129.544 3.84874C129.544 5.95639 131.194 7.69749 133.301 7.69749Z" fill="#FAFAFA"/>
<path d="M100.496 10.3551H106.178V13.8373C108.194 11.2715 111.309 9.80531 114.608 9.80531C121.756 9.80531 127.163 15.8533 127.163 23.2759C127.163 30.6985 121.756 36.7465 114.608 36.7465C111.309 36.7465 108.194 35.2803 106.178 32.7145V47.0098H100.496V10.3551ZM113.6 15.0286C108.927 15.0286 105.811 18.6024 105.811 23.3676C105.811 28.1327 109.018 31.7065 113.6 31.7065C118.182 31.7065 121.389 28.1327 121.389 23.3676C121.389 18.6024 118.182 15.0286 113.6 15.0286Z" fill="#FAFAFA"/>
<path d="M140.358 10.3549H146.131V13.8371C147.872 11.1797 150.896 9.62184 154.012 9.80511C160.06 9.80511 164 14.112 164 20.6183V36.1965H158.319V21.5346C158.319 17.411 156.211 14.9368 152.912 14.9368C149.155 14.9368 146.223 17.8691 146.223 23.3674V36.1049H140.541V10.3549H140.358Z" fill="#FAFAFA"/>
<path d="M56.877 9.80522C53.7614 9.62195 50.7374 11.1798 48.9963 13.8372V0.0917263H43.2231V36.2882H48.9963V23.5507C48.9963 18.0525 51.9286 15.1202 55.6857 15.1202C58.9847 15.1202 61.0923 17.5943 61.0923 21.718V36.3799H66.7738V20.8016C66.7738 14.1121 62.925 9.80522 56.877 9.80522Z" fill="#FAFAFA"/>
<path d="M136.142 10.3552H130.461V36.2884H136.142V10.3552Z" fill="#FAFAFA"/>
<path d="M83.727 36.7467C76.3044 36.655 70.348 30.5154 70.4396 23.0928C70.5313 15.6702 76.6709 9.71382 84.0935 9.80546C91.5161 9.8971 97.4725 15.9451 97.3808 23.2761C97.3808 30.6986 91.4245 36.7467 84.0935 36.7467C83.9102 36.7467 83.8186 36.7467 83.727 36.7467ZM83.727 31.4317C88.3088 31.4317 91.5161 27.8579 91.5161 23.2761C91.5161 18.6942 88.3088 15.1204 83.727 15.1204C79.1451 15.1204 75.8462 18.6942 75.8462 23.2761C75.8462 27.8579 79.0535 31.4317 83.727 31.4317Z" fill="#FAFAFA"/>
<path d="M22.4209 6.96448C22.4209 8.70558 21.138 11.1798 19.122 11.1798C17.8391 11.1798 16.8311 10.1718 16.7394 8.88885C16.7394 6.96448 15.8231 5.04011 14.3569 3.84883C13.2572 2.93246 11.8827 2.29101 10.4165 2.19937C11.6994 0.82482 13.5322 0.0917263 15.4565 0.0917263C17.9307 0.183363 20.2216 1.46628 21.5045 3.57392C22.146 4.58193 22.4209 5.7732 22.4209 6.96448Z" fill="#FAFAFA"/>
<path d="M14.266 7.14783C15.3657 8.52238 16.0071 11.1799 14.4493 12.4628C13.4413 13.2875 11.9751 13.1959 11.1504 12.1879C8.76781 9.62203 4.91907 9.07221 1.98669 11.0882C2.16997 9.25548 2.9947 7.51438 4.46089 6.3231C6.4769 4.76528 9.13436 4.30709 11.5169 5.22346C12.6166 5.59001 13.5329 6.23147 14.266 7.14783Z" fill="#FAFAFA"/>
<path d="M8.21729 12.4627C9.95838 12.8293 12.1577 14.4787 11.8828 16.4031C11.6078 17.686 10.4166 18.5107 9.13365 18.2358C5.55982 17.7776 2.2609 19.8853 1.34453 23.2758C-0.946391 20.1602 -0.213298 15.8533 2.81071 13.654C3.45217 13.1958 4.09363 12.9209 4.82672 12.646C5.92637 12.2794 7.02601 12.2794 8.21729 12.4627Z" fill="#FAFAFA"/>
<path d="M6.93378 20.435C8.4916 19.6102 11.2407 19.427 12.2487 21.1681C12.8902 22.2677 12.5236 23.6423 11.424 24.2837C9.77452 25.2917 8.58324 26.9412 8.21669 28.8656C7.94178 30.3317 8.12505 31.7979 8.76651 33.0808C6.93378 32.6227 5.37595 31.4314 4.45959 29.7819C3.17667 27.5826 3.26831 24.8335 4.55122 22.6343C5.10104 21.8095 5.92577 20.9848 6.93378 20.435Z" fill="#FAFAFA"/>
<path d="M11.0578 27.3081C11.6993 25.6586 13.7153 23.8259 15.6396 24.4673C16.8309 24.9255 17.4724 26.2084 17.0142 27.3997C16.3727 29.2324 16.556 31.2484 17.564 32.8979C18.2971 34.1808 19.3051 35.1888 20.6797 35.8303C19.0302 36.655 17.0142 36.7466 15.2731 36.1052C12.8905 35.2804 11.0578 33.1728 10.6913 30.607C10.5996 29.5073 10.6913 28.4077 11.0578 27.3081Z" fill="#FAFAFA"/>
<path d="M18.7565 29.9654C18.2067 28.316 18.4816 25.5669 20.406 24.9254C21.5972 24.4672 22.8802 25.1087 23.3383 26.3C24.0714 28.1327 25.5376 29.5073 27.3704 30.2403C28.7449 30.7902 30.2111 30.8818 31.6773 30.5153C30.1195 33.9975 25.9958 35.5553 22.5136 33.9975C20.7725 33.1727 19.398 31.7065 18.7565 29.9654Z" fill="#FAFAFA"/>
<path d="M26.3612 27.0331C24.895 26.1167 23.3372 23.8258 24.3452 22.0847C24.9867 20.9851 26.3612 20.6185 27.5525 21.1684C30.6681 22.8178 34.5169 21.9931 36.6245 19.0607C37.1744 20.8934 36.8994 22.8178 35.8914 24.3756C34.6085 26.5749 32.226 27.9495 29.6601 27.8578C28.5605 27.9495 27.3692 27.5829 26.3612 27.0331Z" fill="#FAFAFA"/>
<path d="M30.3021 19.977C28.561 20.2519 25.9035 19.4272 25.537 17.5028C25.3537 16.3115 26.1784 15.1202 27.3697 14.8453C27.3697 14.8453 27.3697 14.8453 27.4613 14.8453C29.3857 14.4788 31.0352 13.2875 32.0432 11.638C32.7763 10.3551 33.1428 8.98058 32.9595 7.51439C34.5174 8.5224 35.617 10.1719 35.8919 12.0046C36.3501 14.4788 35.4337 17.0446 33.5094 18.6024C32.5014 19.3355 31.4017 19.7937 30.3021 19.977Z" fill="#FAFAFA"/>
<path d="M28.7441 12.0961C27.5528 13.3791 24.987 14.4787 23.4292 13.1958C22.4212 12.4627 22.3295 10.9965 23.0626 9.98849C23.0626 9.98849 23.0626 9.9885 23.1543 9.89686C24.3455 8.33903 24.8954 6.41466 24.6205 4.49029C24.4372 3.0241 23.7041 1.74119 22.6961 0.641547C24.5288 0.458274 26.4532 1.00809 27.9194 2.29101C29.8438 3.94047 30.7601 6.5063 30.3019 8.98049C30.027 10.1718 29.4772 11.1798 28.7441 12.0961Z" fill="#FAFAFA"/>
</svg>
