<svg width="208" height="33" viewBox="0 0 208 33" fill="none" xmlns="http://www.w3.org/2000/svg">
<path d="M0 0H10.9017L18.3347 20.678L18.0213 0H25.1846V32.4378H15.9941L6.75733 7.11704L7.16329 32.4352H0V0ZM27.1655 21.8496V20.0922C27.1655 13.9206 31.5359 9.10056 38.0672 9.10056C45.2305 9.10056 49.8707 14.1467 48.9252 22.7514H34.5986V24.239C34.5986 26.536 36.1761 27.7976 38.1571 27.7976C40.4104 27.7976 41.4458 26.5823 41.582 24.329H48.8815C48.4318 28.833 44.7808 32.89 38.0697 32.89C31.5359 32.8874 27.1655 28.5632 27.1655 21.8496ZM41.582 18.1549V17.4329C41.582 15.1796 40.0044 14.0979 38.1134 14.0979C36.1299 14.0979 34.6448 15.3594 34.6448 17.4329V18.1549H41.582ZM52.8459 25.2282V15.3183H48.9277V9.55019H52.8459V3.28874H60.2353V9.55019H64.3797V15.3158H60.2353V24.46C60.2353 26.0376 60.7749 26.6671 61.9028 26.6671H64.3797V32.6587H59.6495C55.053 32.6613 52.8459 30.2282 52.8459 25.2282ZM66.0446 25.2282V3.28874H73.434V9.55019H77.5783V15.3158H73.434V24.46C73.434 26.0376 73.9735 26.6671 75.1015 26.6671H77.1287V32.6587H72.8482C68.2516 32.6613 66.0446 30.2282 66.0446 25.2282ZM78.66 26.2662C78.66 22.5716 80.8234 20.3645 85.9132 19.2828L88.48 18.7433C91.2728 18.1574 91.9049 17.6616 91.9049 16.5799C91.9049 15.2747 91.0493 14.5064 89.1557 14.5064C87.1748 14.5064 86.1367 15.3183 86.1367 17.1657V17.8877H79.7854C79.7854 12.0322 83.7036 9.10313 89.4255 9.10313C95.6869 9.10313 99.1118 11.8523 99.1118 17.7977V32.4403H92.3083V27.6203C91.4527 30.9553 88.5699 32.89 85.2349 32.89C81.2268 32.8874 78.66 30.2744 78.66 26.2662ZM91.9049 24.7324V20.9477C91.4989 21.7596 90.8694 22.1194 89.6516 22.5253L88.2539 22.9749C86.5864 23.5145 85.9569 24.1902 85.9569 25.4518C85.9569 26.8932 86.8587 27.5252 88.5237 27.5252C90.6433 27.5252 91.9049 26.4461 91.9049 24.7324ZM99.5641 9.55019H107.267L110.692 28.517L114.07 9.55019H121.55L116.008 32.4352H105.196L99.5641 9.55019ZM122.945 0.26978H130.468V6.84726H122.945V0.26978ZM123.035 9.55019H130.424V32.4352H123.035V9.55019ZM131.866 24.2365H138.669V25.0021C138.669 26.8032 139.841 27.9312 142.274 27.9312C144.301 27.9312 145.427 27.1655 145.427 25.9939C145.427 24.7786 144.345 24.3727 142.408 23.9205L138.849 23.0649C135.064 22.163 132.767 19.9123 132.767 16.3975C132.767 12.117 136.326 9.09799 142.094 9.09799C147.726 9.09799 151.644 12.117 151.644 16.9807H144.977V16.2639C144.977 14.7325 143.762 13.8769 141.958 13.8769C140.067 13.8769 139.255 14.7325 139.255 15.768C139.255 16.8034 140.29 17.1657 142.138 17.5691L145.922 18.381C150.067 19.2828 152.14 21.5798 152.14 25.0484C152.14 29.5087 148.492 32.8874 142.228 32.8874C135.784 32.8874 131.866 29.6886 131.866 24.2365ZM153.176 21.8496V20.0922C153.176 13.9206 157.546 9.10056 164.077 9.10056C171.241 9.10056 175.881 14.1467 174.935 22.7514H160.609V24.239C160.609 26.536 162.186 27.7976 164.167 27.7976C166.421 27.7976 167.456 26.5823 167.592 24.329H174.892C174.439 28.833 170.788 32.8874 164.077 32.8874C157.544 32.8874 153.176 28.5632 153.176 21.8496ZM167.59 18.1549V17.4329C167.59 15.1796 166.012 14.0979 164.121 14.0979C162.14 14.0979 160.652 15.3594 160.652 17.4329V18.1549H167.59ZM176.736 9.55019H183.9V14.9561C184.981 10.9453 187.864 9.10056 191.109 9.10056C195.164 9.10056 197.461 11.8497 197.461 15.8142V32.4378H190.071V18.381C190.071 15.9941 188.856 15.0922 187.188 15.0922C185.431 15.0922 184.126 16.084 184.126 18.4272V32.4378H176.736V9.55019ZM200.297 25.0946H208V32.4378H200.297V25.0946Z" fill="#FAFAFA"/>
</svg>
