<svg width="296" height="208" viewBox="0 0 296 208" fill="none" xmlns="http://www.w3.org/2000/svg">
<g clip-path="url(#clip0_5439_39687)">
<rect width="296" height="208" fill="white"/>
<g clip-path="url(#clip1_5439_39687)">
<path d="M20.2291 181.096C19.7331 181.096 19.3038 180.976 18.9411 180.736C18.5838 180.491 18.3091 180.152 18.1171 179.72C17.9251 179.283 17.8291 178.776 17.8291 178.2C17.8291 177.624 17.9251 177.12 18.1171 176.688C18.3091 176.251 18.5838 175.912 18.9411 175.672C19.3038 175.427 19.7331 175.304 20.2291 175.304C20.7251 175.304 21.1518 175.427 21.5091 175.672C21.8665 175.912 22.1411 176.251 22.3331 176.688C22.5251 177.12 22.6211 177.624 22.6211 178.2C22.6211 178.776 22.5251 179.283 22.3331 179.72C22.1411 180.152 21.8665 180.491 21.5091 180.736C21.1518 180.976 20.7251 181.096 20.2291 181.096ZM20.2291 180.504C20.5545 180.504 20.8451 180.413 21.1011 180.232C21.3625 180.045 21.5651 179.781 21.7091 179.44C21.8585 179.093 21.9331 178.68 21.9331 178.2C21.9331 177.72 21.8585 177.309 21.7091 176.968C21.5651 176.627 21.3625 176.365 21.1011 176.184C20.8451 175.997 20.5545 175.904 20.2291 175.904C19.8985 175.904 19.6051 175.997 19.3491 176.184C19.0931 176.365 18.8905 176.627 18.7411 176.968C18.5918 177.309 18.5171 177.72 18.5171 178.2C18.5171 178.68 18.5918 179.093 18.7411 179.44C18.8905 179.781 19.0931 180.045 19.3491 180.232C19.6051 180.413 19.8985 180.504 20.2291 180.504Z" fill="#333333" fill-opacity="0.35"/>
<path d="M6.7065 139V134.152L5.8025 134.352V133.888L6.9305 133.4H7.3865V139H6.7065ZM8.48056 139V138.528C8.85923 138.229 9.21656 137.928 9.55256 137.624C9.8939 137.315 10.1952 137.011 10.4566 136.712C10.7232 136.413 10.9312 136.12 11.0806 135.832C11.2352 135.544 11.3126 135.267 11.3126 135C11.3126 134.803 11.2779 134.619 11.2086 134.448C11.1446 134.277 11.0379 134.141 10.8886 134.04C10.7392 133.933 10.5366 133.88 10.2806 133.88C10.0352 133.88 9.8299 133.936 9.66456 134.048C9.49923 134.155 9.3739 134.299 9.28856 134.48C9.20856 134.661 9.16856 134.856 9.16856 135.064H8.52056C8.52056 134.696 8.5979 134.381 8.75256 134.12C8.90723 133.853 9.1179 133.651 9.38456 133.512C9.65123 133.373 9.95256 133.304 10.2886 133.304C10.7846 133.304 11.1899 133.445 11.5046 133.728C11.8246 134.005 11.9846 134.421 11.9846 134.976C11.9846 135.307 11.9019 135.635 11.7366 135.96C11.5712 136.28 11.3606 136.592 11.1046 136.896C10.8486 137.195 10.5739 137.475 10.2806 137.736C9.99256 137.997 9.72323 138.232 9.47256 138.44H12.1766V139H8.48056ZM15.0507 139.096C14.6667 139.096 14.3334 139.027 14.0507 138.888C13.768 138.749 13.5414 138.56 13.3707 138.32C13.2054 138.075 13.104 137.797 13.0667 137.488H13.7227C13.7867 137.797 13.936 138.048 14.1707 138.24C14.4054 138.427 14.7014 138.52 15.0587 138.52C15.3254 138.52 15.5547 138.459 15.7467 138.336C15.9387 138.208 16.0854 138.037 16.1867 137.824C16.2934 137.611 16.3467 137.373 16.3467 137.112C16.3467 136.696 16.2294 136.36 15.9947 136.104C15.76 135.848 15.456 135.72 15.0827 135.72C14.7734 135.72 14.5094 135.789 14.2907 135.928C14.072 136.067 13.912 136.248 13.8107 136.472H13.1707L13.6507 133.4H16.5867V133.984H14.1707L13.8427 135.688C13.9707 135.533 14.1467 135.405 14.3707 135.304C14.6 135.203 14.8614 135.152 15.1547 135.152C15.5227 135.152 15.8427 135.237 16.1147 135.408C16.392 135.579 16.608 135.811 16.7627 136.104C16.9174 136.397 16.9947 136.731 16.9947 137.104C16.9947 137.461 16.9174 137.792 16.7627 138.096C16.6134 138.4 16.392 138.643 16.0987 138.824C15.8107 139.005 15.4614 139.096 15.0507 139.096ZM20.2291 139.096C19.7331 139.096 19.3038 138.976 18.9411 138.736C18.5838 138.491 18.3091 138.152 18.1171 137.72C17.9251 137.283 17.8291 136.776 17.8291 136.2C17.8291 135.624 17.9251 135.12 18.1171 134.688C18.3091 134.251 18.5838 133.912 18.9411 133.672C19.3038 133.427 19.7331 133.304 20.2291 133.304C20.7251 133.304 21.1518 133.427 21.5091 133.672C21.8665 133.912 22.1411 134.251 22.3331 134.688C22.5251 135.12 22.6211 135.624 22.6211 136.2C22.6211 136.776 22.5251 137.283 22.3331 137.72C22.1411 138.152 21.8665 138.491 21.5091 138.736C21.1518 138.976 20.7251 139.096 20.2291 139.096ZM20.2291 138.504C20.5545 138.504 20.8451 138.413 21.1011 138.232C21.3625 138.045 21.5651 137.781 21.7091 137.44C21.8585 137.093 21.9331 136.68 21.9331 136.2C21.9331 135.72 21.8585 135.309 21.7091 134.968C21.5651 134.627 21.3625 134.365 21.1011 134.184C20.8451 133.997 20.5545 133.904 20.2291 133.904C19.8985 133.904 19.6051 133.997 19.3491 134.184C19.0931 134.365 18.8905 134.627 18.7411 134.968C18.5918 135.309 18.5171 135.72 18.5171 136.2C18.5171 136.68 18.5918 137.093 18.7411 137.44C18.8905 137.781 19.0931 138.045 19.3491 138.232C19.6051 138.413 19.8985 138.504 20.2291 138.504Z" fill="#333333" fill-opacity="0.35"/>
<path d="M2.93369 98V97.528C3.31235 97.2293 3.66969 96.928 4.00569 96.624C4.34702 96.3147 4.64835 96.0107 4.90969 95.712C5.17635 95.4133 5.38435 95.12 5.53369 94.832C5.68835 94.544 5.76569 94.2667 5.76569 94C5.76569 93.8027 5.73102 93.6187 5.66169 93.448C5.59769 93.2773 5.49102 93.1413 5.34169 93.04C5.19235 92.9333 4.98969 92.88 4.73369 92.88C4.48835 92.88 4.28302 92.936 4.11769 93.048C3.95235 93.1547 3.82702 93.2987 3.74169 93.48C3.66169 93.6613 3.62169 93.856 3.62169 94.064H2.97369C2.97369 93.696 3.05102 93.3813 3.20569 93.12C3.36035 92.8533 3.57102 92.6507 3.83769 92.512C4.10435 92.3733 4.40569 92.304 4.74169 92.304C5.23769 92.304 5.64302 92.4453 5.95769 92.728C6.27769 93.0053 6.43769 93.4213 6.43769 93.976C6.43769 94.3067 6.35502 94.6347 6.18969 94.96C6.02435 95.28 5.81369 95.592 5.55769 95.896C5.30169 96.1947 5.02702 96.4747 4.73369 96.736C4.44569 96.9973 4.17635 97.232 3.92569 97.44H6.62969V98H2.93369ZM9.50381 98.096C9.11981 98.096 8.78648 98.0267 8.50381 97.888C8.22115 97.7493 7.99448 97.56 7.82381 97.32C7.65848 97.0747 7.55715 96.7973 7.51981 96.488H8.17581C8.23981 96.7973 8.38915 97.048 8.62381 97.24C8.85848 97.4267 9.15448 97.52 9.51181 97.52C9.77848 97.52 10.0078 97.4587 10.1998 97.336C10.3918 97.208 10.5385 97.0373 10.6398 96.824C10.7465 96.6107 10.7998 96.3733 10.7998 96.112C10.7998 95.696 10.6825 95.36 10.4478 95.104C10.2131 94.848 9.90915 94.72 9.53581 94.72C9.22648 94.72 8.96248 94.7893 8.74381 94.928C8.52515 95.0667 8.36515 95.248 8.26381 95.472H7.62381L8.10381 92.4H11.0398V92.984H8.62381L8.29581 94.688C8.42381 94.5333 8.59981 94.4053 8.82381 94.304C9.05315 94.2027 9.31448 94.152 9.60781 94.152C9.97581 94.152 10.2958 94.2373 10.5678 94.408C10.8451 94.5787 11.0611 94.8107 11.2158 95.104C11.3705 95.3973 11.4478 95.7307 11.4478 96.104C11.4478 96.4613 11.3705 96.792 11.2158 97.096C11.0665 97.4 10.8451 97.6427 10.5518 97.824C10.2638 98.0053 9.91448 98.096 9.50381 98.096ZM14.6823 98.096C14.1863 98.096 13.7569 97.976 13.3943 97.736C13.0369 97.4907 12.7623 97.152 12.5703 96.72C12.3783 96.2827 12.2823 95.776 12.2823 95.2C12.2823 94.624 12.3783 94.12 12.5703 93.688C12.7623 93.2507 13.0369 92.912 13.3943 92.672C13.7569 92.4267 14.1863 92.304 14.6823 92.304C15.1783 92.304 15.6049 92.4267 15.9623 92.672C16.3196 92.912 16.5943 93.2507 16.7863 93.688C16.9783 94.12 17.0743 94.624 17.0743 95.2C17.0743 95.776 16.9783 96.2827 16.7863 96.72C16.5943 97.152 16.3196 97.4907 15.9623 97.736C15.6049 97.976 15.1783 98.096 14.6823 98.096ZM14.6823 97.504C15.0076 97.504 15.2983 97.4133 15.5543 97.232C15.8156 97.0453 16.0182 96.7813 16.1623 96.44C16.3116 96.0933 16.3863 95.68 16.3863 95.2C16.3863 94.72 16.3116 94.3093 16.1623 93.968C16.0182 93.6267 15.8156 93.3653 15.5543 93.184C15.2983 92.9973 15.0076 92.904 14.6823 92.904C14.3516 92.904 14.0583 92.9973 13.8023 93.184C13.5463 93.3653 13.3436 93.6267 13.1943 93.968C13.0449 94.3093 12.9703 94.72 12.9703 95.2C12.9703 95.68 13.0449 96.0933 13.1943 96.44C13.3436 96.7813 13.5463 97.0453 13.8023 97.232C14.0583 97.4133 14.3516 97.504 14.6823 97.504ZM20.2291 98.096C19.7331 98.096 19.3038 97.976 18.9411 97.736C18.5838 97.4907 18.3091 97.152 18.1171 96.72C17.9251 96.2827 17.8291 95.776 17.8291 95.2C17.8291 94.624 17.9251 94.12 18.1171 93.688C18.3091 93.2507 18.5838 92.912 18.9411 92.672C19.3038 92.4267 19.7331 92.304 20.2291 92.304C20.7251 92.304 21.1518 92.4267 21.5091 92.672C21.8665 92.912 22.1411 93.2507 22.3331 93.688C22.5251 94.12 22.6211 94.624 22.6211 95.2C22.6211 95.776 22.5251 96.2827 22.3331 96.72C22.1411 97.152 21.8665 97.4907 21.5091 97.736C21.1518 97.976 20.7251 98.096 20.2291 98.096ZM20.2291 97.504C20.5545 97.504 20.8451 97.4133 21.1011 97.232C21.3625 97.0453 21.5651 96.7813 21.7091 96.44C21.8585 96.0933 21.9331 95.68 21.9331 95.2C21.9331 94.72 21.8585 94.3093 21.7091 93.968C21.5651 93.6267 21.3625 93.3653 21.1011 93.184C20.8451 92.9973 20.5545 92.904 20.2291 92.904C19.8985 92.904 19.6051 92.9973 19.3491 93.184C19.0931 93.3653 18.8905 93.6267 18.7411 93.968C18.5918 94.3093 18.5171 94.72 18.5171 95.2C18.5171 95.68 18.5918 96.0933 18.7411 96.44C18.8905 96.7813 19.0931 97.0453 19.3491 97.232C19.6051 97.4133 19.8985 97.504 20.2291 97.504Z" fill="#333333" fill-opacity="0.35"/>
<path d="M6.28913 56.096C5.93179 56.096 5.60913 56.032 5.32113 55.904C5.03313 55.7707 4.80113 55.5733 4.62513 55.312C4.45446 55.0507 4.36379 54.7253 4.35313 54.336H5.03313C5.03846 54.656 5.15046 54.9333 5.36913 55.168C5.58779 55.3973 5.89446 55.512 6.28913 55.512C6.68379 55.512 6.97979 55.4027 7.17713 55.184C7.37979 54.9653 7.48113 54.7013 7.48113 54.392C7.48113 54.1307 7.41713 53.9173 7.28913 53.752C7.16646 53.5867 6.99846 53.464 6.78513 53.384C6.57713 53.304 6.34779 53.264 6.09713 53.264H5.68113V52.696H6.09713C6.45979 52.696 6.74246 52.6133 6.94513 52.448C7.15313 52.2827 7.25713 52.0507 7.25713 51.752C7.25713 51.5013 7.17446 51.296 7.00913 51.136C6.84913 50.9707 6.60913 50.888 6.28913 50.888C5.97979 50.888 5.73179 50.9813 5.54513 51.168C5.35846 51.3493 5.25446 51.5787 5.23313 51.856H4.55313C4.56913 51.552 4.64913 51.2827 4.79313 51.048C4.94246 50.8133 5.14513 50.632 5.40113 50.504C5.65713 50.3707 5.95313 50.304 6.28913 50.304C6.65179 50.304 6.95313 50.368 7.19313 50.496C7.43846 50.624 7.62246 50.7947 7.74513 51.008C7.87313 51.2213 7.93713 51.456 7.93713 51.712C7.93713 51.9947 7.85979 52.2533 7.70513 52.488C7.55046 52.7173 7.31846 52.872 7.00913 52.952C7.33979 53.0213 7.61446 53.1787 7.83313 53.424C8.05179 53.6693 8.16113 53.992 8.16113 54.392C8.16113 54.7013 8.08913 54.9867 7.94513 55.248C7.80646 55.504 7.59846 55.7093 7.32113 55.864C7.04379 56.0187 6.69979 56.096 6.28913 56.096ZM9.57944 56L11.8034 50.976H8.73144V50.4H12.4914V50.904L10.2914 56H9.57944ZM15.0507 56.096C14.6667 56.096 14.3334 56.0267 14.0507 55.888C13.768 55.7493 13.5414 55.56 13.3707 55.32C13.2054 55.0747 13.104 54.7973 13.0667 54.488H13.7227C13.7867 54.7973 13.936 55.048 14.1707 55.24C14.4054 55.4267 14.7014 55.52 15.0587 55.52C15.3254 55.52 15.5547 55.4587 15.7467 55.336C15.9387 55.208 16.0854 55.0373 16.1867 54.824C16.2934 54.6107 16.3467 54.3733 16.3467 54.112C16.3467 53.696 16.2294 53.36 15.9947 53.104C15.76 52.848 15.456 52.72 15.0827 52.72C14.7734 52.72 14.5094 52.7893 14.2907 52.928C14.072 53.0667 13.912 53.248 13.8107 53.472H13.1707L13.6507 50.4H16.5867V50.984H14.1707L13.8427 52.688C13.9707 52.5333 14.1467 52.4053 14.3707 52.304C14.6 52.2027 14.8614 52.152 15.1547 52.152C15.5227 52.152 15.8427 52.2373 16.1147 52.408C16.392 52.5787 16.608 52.8107 16.7627 53.104C16.9174 53.3973 16.9947 53.7307 16.9947 54.104C16.9947 54.4613 16.9174 54.792 16.7627 55.096C16.6134 55.4 16.392 55.6427 16.0987 55.824C15.8107 56.0053 15.4614 56.096 15.0507 56.096ZM20.2291 56.096C19.7331 56.096 19.3038 55.976 18.9411 55.736C18.5838 55.4907 18.3091 55.152 18.1171 54.72C17.9251 54.2827 17.8291 53.776 17.8291 53.2C17.8291 52.624 17.9251 52.12 18.1171 51.688C18.3091 51.2507 18.5838 50.912 18.9411 50.672C19.3038 50.4267 19.7331 50.304 20.2291 50.304C20.7251 50.304 21.1518 50.4267 21.5091 50.672C21.8665 50.912 22.1411 51.2507 22.3331 51.688C22.5251 52.12 22.6211 52.624 22.6211 53.2C22.6211 53.776 22.5251 54.2827 22.3331 54.72C22.1411 55.152 21.8665 55.4907 21.5091 55.736C21.1518 55.976 20.7251 56.096 20.2291 56.096ZM20.2291 55.504C20.5545 55.504 20.8451 55.4133 21.1011 55.232C21.3625 55.0453 21.5651 54.7813 21.7091 54.44C21.8585 54.0933 21.9331 53.68 21.9331 53.2C21.9331 52.72 21.8585 52.3093 21.7091 51.968C21.5651 51.6267 21.3625 51.3653 21.1011 51.184C20.8451 50.9973 20.5545 50.904 20.2291 50.904C19.8985 50.904 19.6051 50.9973 19.3491 51.184C19.0931 51.3653 18.8905 51.6267 18.7411 51.968C18.5918 52.3093 18.5171 52.72 18.5171 53.2C18.5171 53.68 18.5918 54.0933 18.7411 54.44C18.8905 54.7813 19.0931 55.0453 19.3491 55.232C19.6051 55.4133 19.8985 55.504 20.2291 55.504Z" fill="#333333" fill-opacity="0.35"/>
<path d="M3.95694 14.096C3.57294 14.096 3.2396 14.0267 2.95694 13.888C2.67427 13.7493 2.4476 13.56 2.27694 13.32C2.1116 13.0747 2.01027 12.7973 1.97294 12.488H2.62894C2.69294 12.7973 2.84227 13.048 3.07694 13.24C3.3116 13.4267 3.6076 13.52 3.96494 13.52C4.2316 13.52 4.46094 13.4587 4.65294 13.336C4.84494 13.208 4.9916 13.0373 5.09294 12.824C5.1996 12.6107 5.25294 12.3733 5.25294 12.112C5.25294 11.696 5.1356 11.36 4.90094 11.104C4.66627 10.848 4.36227 10.72 3.98894 10.72C3.6796 10.72 3.4156 10.7893 3.19694 10.928C2.97827 11.0667 2.81827 11.248 2.71694 11.472H2.07694L2.55694 8.4H5.49294V8.984H3.07694L2.74894 10.688C2.87694 10.5333 3.05294 10.4053 3.27694 10.304C3.50627 10.2027 3.7676 10.152 4.06094 10.152C4.42894 10.152 4.74894 10.2373 5.02094 10.408C5.29827 10.5787 5.51427 10.8107 5.66894 11.104C5.8236 11.3973 5.90094 11.7307 5.90094 12.104C5.90094 12.4613 5.8236 12.792 5.66894 13.096C5.5196 13.4 5.29827 13.6427 5.00494 13.824C4.71694 14.0053 4.3676 14.096 3.95694 14.096ZM9.13538 14.096C8.63938 14.096 8.21004 13.976 7.84738 13.736C7.49004 13.4907 7.21538 13.152 7.02338 12.72C6.83138 12.2827 6.73538 11.776 6.73538 11.2C6.73538 10.624 6.83138 10.12 7.02338 9.688C7.21538 9.25067 7.49004 8.912 7.84738 8.672C8.21004 8.42667 8.63938 8.304 9.13538 8.304C9.63138 8.304 10.058 8.42667 10.4154 8.672C10.7727 8.912 11.0474 9.25067 11.2394 9.688C11.4314 10.12 11.5274 10.624 11.5274 11.2C11.5274 11.776 11.4314 12.2827 11.2394 12.72C11.0474 13.152 10.7727 13.4907 10.4154 13.736C10.058 13.976 9.63138 14.096 9.13538 14.096ZM9.13538 13.504C9.46071 13.504 9.75138 13.4133 10.0074 13.232C10.2687 13.0453 10.4714 12.7813 10.6154 12.44C10.7647 12.0933 10.8394 11.68 10.8394 11.2C10.8394 10.72 10.7647 10.3093 10.6154 9.968C10.4714 9.62667 10.2687 9.36533 10.0074 9.184C9.75138 8.99733 9.46071 8.904 9.13538 8.904C8.80471 8.904 8.51138 8.99733 8.25538 9.184C7.99938 9.36533 7.79671 9.62667 7.64738 9.968C7.49804 10.3093 7.42338 10.72 7.42338 11.2C7.42338 11.68 7.49804 12.0933 7.64738 12.44C7.79671 12.7813 7.99938 13.0453 8.25538 13.232C8.51138 13.4133 8.80471 13.504 9.13538 13.504ZM14.6823 14.096C14.1863 14.096 13.7569 13.976 13.3943 13.736C13.0369 13.4907 12.7623 13.152 12.5703 12.72C12.3783 12.2827 12.2823 11.776 12.2823 11.2C12.2823 10.624 12.3783 10.12 12.5703 9.688C12.7623 9.25067 13.0369 8.912 13.3943 8.672C13.7569 8.42667 14.1863 8.304 14.6823 8.304C15.1783 8.304 15.6049 8.42667 15.9623 8.672C16.3196 8.912 16.5943 9.25067 16.7863 9.688C16.9783 10.12 17.0743 10.624 17.0743 11.2C17.0743 11.776 16.9783 12.2827 16.7863 12.72C16.5943 13.152 16.3196 13.4907 15.9623 13.736C15.6049 13.976 15.1783 14.096 14.6823 14.096ZM14.6823 13.504C15.0076 13.504 15.2983 13.4133 15.5543 13.232C15.8156 13.0453 16.0182 12.7813 16.1623 12.44C16.3116 12.0933 16.3863 11.68 16.3863 11.2C16.3863 10.72 16.3116 10.3093 16.1623 9.968C16.0182 9.62667 15.8156 9.36533 15.5543 9.184C15.2983 8.99733 15.0076 8.904 14.6823 8.904C14.3516 8.904 14.0583 8.99733 13.8023 9.184C13.5463 9.36533 13.3436 9.62667 13.1943 9.968C13.0449 10.3093 12.9703 10.72 12.9703 11.2C12.9703 11.68 13.0449 12.0933 13.1943 12.44C13.3436 12.7813 13.5463 13.0453 13.8023 13.232C14.0583 13.4133 14.3516 13.504 14.6823 13.504ZM20.2291 14.096C19.7331 14.096 19.3038 13.976 18.9411 13.736C18.5838 13.4907 18.3091 13.152 18.1171 12.72C17.9251 12.2827 17.8291 11.776 17.8291 11.2C17.8291 10.624 17.9251 10.12 18.1171 9.688C18.3091 9.25067 18.5838 8.912 18.9411 8.672C19.3038 8.42667 19.7331 8.304 20.2291 8.304C20.7251 8.304 21.1518 8.42667 21.5091 8.672C21.8665 8.912 22.1411 9.25067 22.3331 9.688C22.5251 10.12 22.6211 10.624 22.6211 11.2C22.6211 11.776 22.5251 12.2827 22.3331 12.72C22.1411 13.152 21.8665 13.4907 21.5091 13.736C21.1518 13.976 20.7251 14.096 20.2291 14.096ZM20.2291 13.504C20.5545 13.504 20.8451 13.4133 21.1011 13.232C21.3625 13.0453 21.5651 12.7813 21.7091 12.44C21.8585 12.0933 21.9331 11.68 21.9331 11.2C21.9331 10.72 21.8585 10.3093 21.7091 9.968C21.5651 9.62667 21.3625 9.36533 21.1011 9.184C20.8451 8.99733 20.5545 8.904 20.2291 8.904C19.8985 8.904 19.6051 8.99733 19.3491 9.184C19.0931 9.36533 18.8905 9.62667 18.7411 9.968C18.5918 10.3093 18.5171 10.72 18.5171 11.2C18.5171 11.68 18.5918 12.0933 18.7411 12.44C18.8905 12.7813 19.0931 13.0453 19.3491 13.232C19.6051 13.4133 19.8985 13.504 20.2291 13.504Z" fill="#333333" fill-opacity="0.35"/>
<path d="M24.0371 178.766H626.905" stroke="#333333" stroke-opacity="0.35" stroke-dasharray="4 2"/>
<path d="M24.0371 137.102H626.905" stroke="#333333" stroke-opacity="0.35" stroke-dasharray="4 2"/>
<path d="M24.0371 95.4375H626.905" stroke="#333333" stroke-opacity="0.35" stroke-dasharray="4 2"/>
<path d="M24.0371 53.7773H626.905" stroke="#333333" stroke-opacity="0.35" stroke-dasharray="4 2"/>
<path d="M24.0371 12.1133H626.905" stroke="#333333" stroke-opacity="0.35" stroke-dasharray="4 2"/>
<path d="M56.0713 12V174.5" stroke="#333333" stroke-opacity="0.35" stroke-dasharray="4 2"/>
<path d="M56.0713 178.5V184" stroke="#333333" stroke-opacity="0.35"/>
<path d="M52.7153 194V189.36L51.8113 189.568V188.944L53.0513 188.4H53.5953V194H52.7153ZM56.973 194.096C56.4664 194.096 56.029 193.976 55.661 193.736C55.2984 193.491 55.0184 193.152 54.821 192.72C54.629 192.283 54.533 191.776 54.533 191.2C54.533 190.624 54.629 190.12 54.821 189.688C55.0184 189.251 55.2984 188.912 55.661 188.672C56.029 188.427 56.4664 188.304 56.973 188.304C57.4797 188.304 57.9144 188.427 58.277 188.672C58.6397 188.912 58.917 189.251 59.109 189.688C59.3064 190.12 59.405 190.624 59.405 191.2C59.405 191.776 59.3064 192.283 59.109 192.72C58.917 193.152 58.6397 193.491 58.277 193.736C57.9144 193.976 57.4797 194.096 56.973 194.096ZM56.973 193.336C57.277 193.336 57.5464 193.251 57.781 193.08C58.021 192.909 58.2077 192.664 58.341 192.344C58.4744 192.024 58.541 191.643 58.541 191.2C58.541 190.757 58.4744 190.376 58.341 190.056C58.2077 189.736 58.021 189.491 57.781 189.32C57.5464 189.149 57.277 189.064 56.973 189.064C56.6637 189.064 56.3917 189.149 56.157 189.32C55.9224 189.491 55.7384 189.736 55.605 190.056C55.4717 190.376 55.405 190.757 55.405 191.2C55.405 191.643 55.4717 192.024 55.605 192.344C55.7384 192.664 55.9224 192.909 56.157 193.08C56.3917 193.251 56.6637 193.336 56.973 193.336Z" fill="#333333" fill-opacity="0.35"/>
<path d="M47.6393 204V198.4H48.6393L50.5353 202.128L52.4233 198.4H53.4233V204H52.5753V199.864L50.8633 203.2H50.2073L48.4873 199.872V204H47.6393ZM54.2012 204L56.2652 198.4H57.1932L59.2412 204H58.3452L57.8652 202.632H55.5772L55.0972 204H54.2012ZM55.8172 201.96H57.6252L56.7212 199.408L55.8172 201.96ZM60.0221 204V198.4H61.9501C62.3928 198.4 62.7554 198.475 63.0381 198.624C63.3261 198.773 63.5394 198.976 63.6781 199.232C63.8168 199.483 63.8861 199.763 63.8861 200.072C63.8861 200.419 63.7928 200.733 63.6061 201.016C63.4248 201.299 63.1394 201.501 62.7501 201.624L63.9421 204H62.9581L61.8701 201.744H60.8701V204H60.0221ZM60.8701 201.104H61.9021C62.2861 201.104 62.5661 201.011 62.7421 200.824C62.9234 200.637 63.0141 200.395 63.0141 200.096C63.0141 199.797 62.9261 199.56 62.7501 199.384C62.5741 199.203 62.2888 199.112 61.8941 199.112H60.8701V201.104Z" fill="#333333" fill-opacity="0.35"/>
<path d="M262.929 12V174.5" stroke="#333333" stroke-opacity="0.35" stroke-dasharray="4 2"/>
<path d="M262.929 178.5V184" stroke="#333333" stroke-opacity="0.35"/>
<path d="M260.073 194V189.36L259.169 189.568V188.944L260.409 188.4H260.953V194H260.073ZM261.978 194V193.392C262.341 193.104 262.688 192.813 263.018 192.52C263.349 192.227 263.642 191.939 263.898 191.656C264.16 191.368 264.365 191.088 264.514 190.816C264.664 190.539 264.738 190.272 264.738 190.016C264.738 189.845 264.709 189.685 264.65 189.536C264.592 189.381 264.496 189.259 264.362 189.168C264.229 189.072 264.05 189.024 263.826 189.024C263.49 189.024 263.237 189.131 263.066 189.344C262.901 189.557 262.821 189.813 262.826 190.112H262.002C262.008 189.717 262.09 189.387 262.25 189.12C262.416 188.853 262.634 188.651 262.906 188.512C263.184 188.373 263.496 188.304 263.842 188.304C264.37 188.304 264.792 188.453 265.106 188.752C265.426 189.045 265.586 189.456 265.586 189.984C265.586 190.299 265.509 190.611 265.354 190.92C265.205 191.229 265.008 191.528 264.762 191.816C264.522 192.099 264.264 192.365 263.986 192.616C263.709 192.867 263.445 193.093 263.194 193.296H265.754V194H261.978Z" fill="#333333" fill-opacity="0.35"/>
<path d="M254.497 204V198.4H255.497L257.393 202.128L259.281 198.4H260.281V204H259.433V199.864L257.721 203.2H257.065L255.345 199.872V204H254.497ZM261.059 204L263.123 198.4H264.051L266.099 204H265.203L264.723 202.632H262.435L261.955 204H261.059ZM262.675 201.96H264.483L263.579 199.408L262.675 201.96ZM266.88 204V198.4H268.808C269.25 198.4 269.613 198.475 269.896 198.624C270.184 198.773 270.397 198.976 270.536 199.232C270.674 199.483 270.744 199.763 270.744 200.072C270.744 200.419 270.65 200.733 270.464 201.016C270.282 201.299 269.997 201.501 269.608 201.624L270.8 204H269.816L268.728 201.744H267.728V204H266.88ZM267.728 201.104H268.76C269.144 201.104 269.424 201.011 269.6 200.824C269.781 200.637 269.872 200.395 269.872 200.096C269.872 199.797 269.784 199.56 269.608 199.384C269.432 199.203 269.146 199.112 268.752 199.112H267.728V201.104Z" fill="#333333" fill-opacity="0.35"/>
<path d="M159.499 12V174.5" stroke="#333333" stroke-opacity="0.35" stroke-dasharray="4 2"/>
<path d="M159.499 178.5V184" stroke="#333333" stroke-opacity="0.35"/>
<path d="M157.643 194V189.36L156.739 189.568V188.944L157.979 188.4H158.523V194H157.643ZM160.237 194V189.36L159.333 189.568V188.944L160.573 188.4H161.117V194H160.237Z" fill="#333333" fill-opacity="0.35"/>
<path d="M151.067 204V198.4H152.067L153.963 202.128L155.851 198.4H156.851V204H156.003V199.864L154.291 203.2H153.635L151.915 199.872V204H151.067ZM157.629 204L159.693 198.4H160.621L162.669 204H161.773L161.293 202.632H159.005L158.525 204H157.629ZM159.245 201.96H161.053L160.149 199.408L159.245 201.96ZM163.45 204V198.4H165.378C165.821 198.4 166.183 198.475 166.466 198.624C166.754 198.773 166.967 198.976 167.106 199.232C167.245 199.483 167.314 199.763 167.314 200.072C167.314 200.419 167.221 200.733 167.034 201.016C166.853 201.299 166.567 201.501 166.178 201.624L167.37 204H166.386L165.298 201.744H164.298V204H163.45ZM164.298 201.104H165.33C165.714 201.104 165.994 201.011 166.17 200.824C166.351 200.637 166.442 200.395 166.442 200.096C166.442 199.797 166.354 199.56 166.178 199.384C166.002 199.203 165.717 199.112 165.322 199.112H164.298V201.104Z" fill="#333333" fill-opacity="0.35"/>
<path d="M24 81L159.5 156.999L263 119.499L359 135.5" stroke="#F56485" stroke-width="4" stroke-linejoin="round"/>
<path d="M24 165.782L159 107L263 81.5L465.959 30.457" stroke="#5EC7B3" stroke-width="4" stroke-linejoin="round"/>
<path d="M24.5 146L159.5 42L262.5 60L365.5 52.5" stroke="#6993CC" stroke-width="4" stroke-linejoin="round"/>
<circle cx="25.5" cy="145.5" r="3.5" fill="white" stroke="#6993CC" stroke-width="2"/>
<circle cx="25.5" cy="165.5" r="3.5" fill="white" stroke="#5EC7B3" stroke-width="2"/>
<circle cx="159.5" cy="106.5" r="3.5" fill="white" stroke="#5EC7B3" stroke-width="2"/>
<circle cx="262.5" cy="81.5" r="3.5" fill="white" stroke="#5EC7B3" stroke-width="2"/>
<circle cx="25.5" cy="81.5" r="3.5" fill="white" stroke="#F56485" stroke-width="2"/>
<circle cx="159.5" cy="156.5" r="3.5" fill="white" stroke="#F56485" stroke-width="2"/>
<circle cx="262.5" cy="119.5" r="3.5" fill="white" stroke="#F56485" stroke-width="2"/>
<circle cx="159.5" cy="41.5" r="3.5" fill="white" stroke="#6993CC" stroke-width="2"/>
<circle cx="262.5" cy="59.5" r="3.5" fill="white" stroke="#6993CC" stroke-width="2"/>
</g>
</g>
<defs>
<clipPath id="clip0_5439_39687">
<rect width="296" height="208" fill="white"/>
</clipPath>
<clipPath id="clip1_5439_39687">
<rect width="296" height="202" fill="white" transform="translate(1 8)"/>
</clipPath>
</defs>
</svg>
