<svg id="e381RMjWoHk1" xmlns="http://www.w3.org/2000/svg" xmlns:xlink="http://www.w3.org/1999/xlink" viewBox="0 0 226 80" shape-rendering="geometricPrecision" text-rendering="geometricPrecision"><g transform="translate(.399988 0)"><path d="M42.9,35.8v14.5c0,3.7,1.8,5.5,5.5,5.5h1.6c3.7,0,5.5-1.8,5.5-5.5v-7.1h8.5v6.8c0,9.3-4.7,14.1-14.1,14.1h-1.8c-9.3,0-14.1-4.7-14.1-13v-35.6C34,5.1,38.7,0.3,48.1,0.3h1.8C59.2,0.3,64,5,64,14.4v21.3h-21.1v.1Zm0-8.5h12.5v-13.2c0-3.7-1.8-5.5-5.5-5.5h-1.4c-3.7,0-5.5,1.8-5.5,5.5v13.2h-.1Z" fill="#fafafa"/><path d="M69.8,1.1h8.8v4c2.1-2.2,5.7-4.7,10.7-4.7c7.5,0,11.2,5,11.2,12.3v39c0,7.4-3.7,12.3-11.2,12.3-5.1,0-8.6-2.4-10.7-4.5v20.1h-8.8v-78.5Zm8.8,51.4c2.4,2.1,5.2,3.2,8.1,3.2c3.2,0,5.1-1.5,5.1-5.1v-36.8c0-3.6-1.8-5.1-5.1-5.1-2.9,0-5.7,1.2-8.1,3.2v40.6Z" fill="#fafafa"/><path d="M105.8,41.7c0-7.7,2.5-10.8,9.2-13.1l11.8-4v-10.5c0-3.7-1.8-5.7-5.5-5.7h-1.4c-3.7,0-5.5,2-5.5,5.7v8.8h-8.5v-8.5c0-9.3,4.7-14.1,14.1-14.1h1.7c9.3,0,14.1,4.7,14.1,14.1v48.9h-8.8v-3.9c-2.4,2.3-5.7,4.6-10.7,4.6-7,0-10.3-4-10.3-11v-11.3h-.2Zm21,11.1v-20.5l-8,3c-3.2,1.3-4.3,2.9-4.3,6.5v9.5c0,3,1.5,4.5,4.3,4.5c2.7-.1,5.1-1,8-3Z" fill="#fafafa"/><path d="M171,63.3h-8.8v-50.1c0-3.1-1.5-4.5-4.2-4.5-2.4,0-5,.9-8.1,3.1v51.5h-8.8v-62.2h8.8v4c2.5-2.4,5.9-4.7,10.7-4.7c4.5,0,7.5,1.8,9.1,5.1c3.1-2.7,6.8-5.1,11.9-5.1c6.8,0,10.3,4.2,10.3,11v52h-8.8v-50.2c0-3.1-1.5-4.5-4.2-4.5-2.4,0-5,.9-8.1,3.1v51.5h.2Z" fill="#fafafa"/><path d="M22.9,6.8v11.5L8.2,32.3L22.9,46.1v11.7L0.4,36.6v-8.4L22.9,6.8Z" fill="#fafafa"/><path d="M225.6,28.2v8.4L203.1,57.8v-11.7l14.7-13.8-14.7-14.1v-11.4l22.5,21.4Z" fill="#fafafa"/></g></svg>
