<svg width="60" height="32" fill="none" xmlns="http://www.w3.org/2000/svg"><g clip-path="url(#clip0_782_1394)" fill="#000"><path d="M23.734 9.156h6.325c1.148 0 2.027.173 2.637.542.61.369 1.026.861 1.246 1.526.22.665.317 1.502.317 2.535 0 .985-.098 1.822-.317 2.462-.196.665-.61 1.181-1.246 1.575-.635.394-1.514.591-2.686.591h-3.419v4.603H23.76V9.156h-.025zm5.104 6.745c.806 0 1.368-.05 1.71-.172.341-.099.561-.296.683-.591.098-.296.171-.763.171-1.403s-.049-1.108-.146-1.379c-.098-.27-.318-.467-.66-.59-.342-.099-.903-.173-1.71-.173h-2.319v4.283h2.271v.025zm9.795 4.629h7.058v2.461h-9.793v-1.846c0-1.157.05-2.018.147-2.584.098-.567.293-1.059.635-1.453.317-.394.855-.738 1.587-1.034l.464-.172c.586-.246 1.465-.615 2.662-1.108.44-.172.781-.32.977-.467a1.2 1.2 0 00.39-.493c.074-.197.098-.467.098-.861 0-.468-.073-.813-.244-1.034-.171-.222-.44-.345-.806-.418-.39-.074-.977-.099-1.758-.099-.44 0-1.05.025-1.783.074-.732.05-1.416.123-2.1.221V9.454c.61-.123 1.367-.246 2.271-.32a31.114 31.114 0 012.49-.123c1.002 0 1.857.098 2.54.27a2.899 2.899 0 011.637 1.084c.415.566.61 1.353.61 2.412 0 .812-.098 1.477-.269 1.994-.17.517-.44.935-.78 1.23-.343.32-.807.567-1.368.813a48.72 48.72 0 00-2.003.812l-1.563.616a3.992 3.992 0 00-.537.246c-.122.074-.22.172-.293.27-.098.123-.147.296-.195.493a5.968 5.968 0 00-.05.763v.517h-.024zm17.871 2.435v-5.661h-5.421v5.662H48.25V9.155h2.833v5.588h5.42V9.156h2.858v13.81h-2.857z"/><path d="M59.29 31.952H.047V.025H59.29v4.973h-2.638V2.684H2.684v26.61h53.968v-2.191h2.638v4.85z"/></g><defs><clipPath id="clip0_782_1394"><path fill="#fff" d="M0 0h60v32H0z"/></clipPath></defs></svg>