<svg id="eXhcD6nzf751" xmlns="http://www.w3.org/2000/svg" xmlns:xlink="http://www.w3.org/1999/xlink" viewBox="0 0 283.6 117.1" shape-rendering="geometricPrecision" text-rendering="geometricPrecision"><path d="M80,66.5v0-43.2c0,0,0,0,12.7,0c0,0,0,0,0,59.2c0,0,0,0-10.5,0c0,0,0,0-1.6-6.6-3.7,6-10.9,7.4-14.9,7.4-15,0-26.7-10.4-26.7-26.7c0,0,0,0,0-33.4c0,0,0,0,12.7,0c0,0,0,0,0,33.4c0,15.1,18.6,21,28.3,9.9v0ZM186.4,22.2c17.8,0,30.7,13.5,30.7,30.8c0,17.2-13,30.9-30.7,30.9s-30.9-13.7-30.9-30.9c0-17.3,13.2-30.8,30.9-30.8v0Zm0,50.2c9,0,18-6.3,18-19.4s-9-19.2-18-19.2c-8.7,0-18.2,6.1-18.2,19.2s9.4,19.4,18.2,19.4v0ZM272,63.9c0-29.8,0-29.8,0-29.8c11,0,11,0,11,0c0-10.7,0-10.7,0-10.7-11,0-11,0-11,0C272,7,272,7,272,7c-12.2,1.4-12.2,1.4-12.2,1.4c0,15.1,0,15.1,0,15.1-20.7,0-20.7,0-20.7,0c0-4.4,0-4.4,0-4.4c0-4.2,2.5-7.6,7.8-7.9c1.4-.1,2.8.1,4.5.5c0-10.7,0-10.7,0-10.7-2-.4-3.9-.5-5.6-.5-12-.1-19.4,6.8-19.4,18.6c0,4.4,0,4.4,0,4.4-8.4,0-8.4,0-8.4,0-.1,0-.1,0-.1,0c0,10.7,0,10.7,0,10.7c8.4,0,8.4,0,8.4,0c0,48.5,0,48.5,0,48.5c12.6,0,12.6,0,12.6,0c0-48.5,0-48.5,0-48.5c20.7,0,20.7,0,20.7,0c0,30.2,0,30.2,0,30.2c0,14.2,9.8,19.8,23.5,18.5c0-11.1,0-11.1,0-11.1-8.2,1.3-11.1-3.2-11.1-7.9v0ZM113.5,23.3v0h-14.8l19.7,29.6-20,29.7h13.6l20-29.7-18.5-29.6v0v0v0Zm42.4,0h-13.8L134.4,35L141,45.5l14.9-22.2v0v0ZM141,60.1l-6.9,10.1l8.2,12.4h13.8L141,60.1v0v0v0ZM18.7,71c-3,0-5.4-2.4-5.4-5.5c0-57.2,0-57.2,0-57.2C0.4,6.9,0.4,6.9,0.4,6.9c0,60,0,60,0,60c0,8.7,7,15.7,15.7,15.7c18.8,0,18.8,0,18.8,0c0-11.7,0-11.7,0-11.7h-16.2v.1v0Zm-7,40.9l-1.5-4.2h-5.7L3,111.9h-2.6L6,96.9h2.7l5.6,15h-2.6Zm-2.1-6.3l-1.4-4.1c-.1-.3-.2-.7-.4-1.3s-.3-1-.4-1.3c-.2.8-.5,1.8-.8,2.8l-1.4,3.9h4.4Zm24.3-1.3c0,2.5-.7,4.4-2.1,5.7s-3.3,2-5.9,2h-4.2v-15h4.6c2.4,0,4.2.6,5.6,1.9c1.3,1.2,2,3,2,5.4Zm-2.6,0c0-3.6-1.7-5.4-5-5.4h-2.1v10.9h1.7c3.6,0,5.4-1.8,5.4-5.5Zm16.8,7.6h-2.8l-3.7-6.1-3.8,6.1h-2.6l5-7.8-4.6-7.2h2.7l3.5,5.7l3.5-5.7h2.6l-4.7,7.2l4.9,7.8Zm8.4-13.1c-1.4,0-2.5.5-3.3,1.5s-1.2,2.4-1.2,4.1c0,1.8.4,3.2,1.2,4.2.8.9,1.9,1.4,3.4,1.4.6,0,1.2-.1,1.8-.2s1.2-.3,1.9-.5v2.1c-1.2.4-2.5.7-4,.7-2.2,0-3.9-.7-5-2-1.2-1.3-1.8-3.2-1.8-5.7c0-1.6.3-2.9.9-4.1s1.4-2.1,2.5-2.7s2.3-.9,3.8-.9s2.9.3,4.2,1l-.9,2c-.5-.2-1-.4-1.6-.6-.7-.2-1.3-.3-1.9-.3ZM74,111.9h-2.4v-12.9h-4.4v-2.1h11.2v2.1h-4.4v12.9Zm11.4.2c-1.8,0-3.1-.5-4.1-1.5s-1.5-2.4-1.5-4.2.5-3.3,1.4-4.4s2.2-1.6,3.8-1.6c1.5,0,2.7.5,3.5,1.4.9.9,1.3,2.2,1.3,3.7v1.3h-7.5c0,1.1.3,1.9.9,2.5s1.3.9,2.4.9c.7,0,1.3-.1,1.9-.2s1.2-.3,1.9-.6v2c-.6.3-1.2.5-1.8.6-.8,0-1.5.1-2.2.1Zm-.5-9.9c-.8,0-1.4.2-1.8.7-.5.5-.7,1.2-.8,2.1h5.1c0-.9-.2-1.6-.7-2.1-.4-.5-1-.7-1.8-.7Zm12.2,9.9c-1.7,0-3-.5-3.9-1.5s-1.3-2.4-1.3-4.3.5-3.4,1.4-4.4s2.3-1.5,4-1.5c1.2,0,2.3.2,3.2.7l-.7,1.9c-1-.4-1.9-.6-2.5-.6-2,0-2.9,1.3-2.9,3.9c0,1.3.2,2.2.7,2.9.5.6,1.2,1,2.1,1c1.1,0,2.1-.3,3-.8v2.1c-.4.3-.9.4-1.4.5-.4,0-1,.1-1.7.1Zm15.7-.2h-2.4v-7c0-.9-.2-1.5-.5-2-.4-.4-.9-.6-1.7-.6-1,0-1.8.3-2.2.9-.5.6-.7,1.6-.7,3v5.6h-2.4v-15.8h2.4v4c0,.6,0,1.3-.1,2.1h.2c.3-.5.8-1,1.4-1.3s1.3-.5,2-.5c2.7,0,4.1,1.4,4.1,4.1v7.5h-.1Zm13.3,0h-2.4v-7c0-.9-.2-1.5-.5-2-.4-.4-.9-.6-1.7-.6-1,0-1.8.3-2.2.9-.5.6-.7,1.6-.7,3v5.6h-2.4v-11.3h1.9l.3,1.5h.1c.3-.5.8-1,1.5-1.2.6-.3,1.3-.4,2.1-.4c2.7,0,4.1,1.4,4.1,4.1v7.4h-.1Zm13.4-5.7c0,1.8-.5,3.3-1.4,4.3s-2.3,1.6-4,1.6c-1.1,0-2-.2-2.8-.7s-1.4-1.2-1.9-2.1c-.4-.9-.7-1.9-.7-3.1c0-1.8.5-3.3,1.4-4.3s2.3-1.5,4-1.5c1.6,0,2.9.5,3.9,1.6c1,1,1.5,2.4,1.5,4.2Zm-8.2,0c0,2.6,1,3.9,2.9,3.9s2.9-1.3,2.9-3.9-1-3.9-2.9-3.9c-1,0-1.7.3-2.2,1s-.7,1.7-.7,2.9Zm13.4,5.7h-2.4v-15.9h2.4v15.9Zm13.4-5.7c0,1.8-.5,3.3-1.4,4.3s-2.3,1.6-4,1.6c-1.1,0-2-.2-2.8-.7s-1.4-1.2-1.9-2.1c-.4-.9-.7-1.9-.7-3.1c0-1.8.5-3.3,1.4-4.3s2.3-1.5,4-1.5c1.6,0,2.9.5,3.9,1.6c1.1,1,1.5,2.4,1.5,4.2Zm-8.2,0c0,2.6,1,3.9,2.9,3.9s2.9-1.3,2.9-3.9-1-3.9-2.9-3.9c-1,0-1.7.3-2.2,1s-.7,1.7-.7,2.9Zm20.6-5.6v1.3l-1.9.4c.2.2.3.5.4.9.1.3.2.7.2,1.1c0,1.2-.4,2.1-1.2,2.8s-1.9,1-3.3,1c-.4,0-.7,0-1-.1-.5.3-.8.7-.8,1.1c0,.3.1.5.4.6.2.1.7.2,1.3.2h2c1.2,0,2.2.3,2.8.8s1,1.3,1,2.3c0,1.3-.5,2.3-1.6,3s-2.6,1-4.6,1c-1.5,0-2.7-.3-3.5-.8s-1.2-1.3-1.2-2.3c0-.7.2-1.3.7-1.8.4-.5,1.1-.8,1.8-1-.3-.1-.6-.4-.8-.7s-.3-.6-.3-1s.1-.8.4-1.1c.2-.3.6-.6,1.1-.9-.6-.3-1.1-.7-1.4-1.2-.4-.6-.5-1.2-.5-2c0-1.2.4-2.2,1.2-2.9s1.9-1,3.3-1c.3,0,.7,0,1,.1.4,0,.6.1.8.1h3.7v.1Zm-8.9,13c0,.5.2.9.7,1.2s1.1.4,2,.4c1.3,0,2.3-.2,2.9-.6s1-.9,1-1.5c0-.5-.2-.8-.5-1-.4-.2-1-.3-2-.3h-1.8c-.7,0-1.2.2-1.6.5-.5.4-.7.8-.7,1.3Zm1-9.4c0,.7.2,1.3.5,1.6.4.4.9.6,1.6.6c1.4,0,2.1-.7,2.1-2.2c0-.7-.2-1.3-.5-1.7s-.9-.6-1.6-.6-1.2.2-1.6.6c-.3.4-.5,1-.5,1.7Zm8.2-3.6h2.6l2.3,6.4c.3.9.6,1.8.7,2.6h.1c.1-.4.2-.8.3-1.4.2-.5,1-3.1,2.6-7.6h2.6l-4.8,12.8c-.9,2.4-2.3,3.5-4.4,3.5-.5,0-1.1-.1-1.6-.2v-1.9c.4.1.8.1,1.2.1c1.2,0,2-.7,2.4-2l.4-1.1-4.4-11.2Zm25.1-1.8c-1.4,0-2.5.5-3.3,1.5s-1.2,2.4-1.2,4.1c0,1.8.4,3.2,1.2,4.2.8.9,1.9,1.4,3.4,1.4.6,0,1.2-.1,1.8-.2s1.2-.3,1.9-.5v2.1c-1.2.4-2.5.7-4,.7-2.2,0-3.9-.7-5-2-1.2-1.3-1.8-3.2-1.8-5.7c0-1.6.3-2.9.9-4.1s1.4-2.1,2.5-2.7s2.3-.9,3.8-.9s2.9.3,4.2,1l-.9,2c-.5-.2-1-.4-1.6-.6-.7-.2-1.3-.3-1.9-.3Zm16.6,7.4c0,1.8-.5,3.3-1.4,4.3s-2.3,1.6-4,1.6c-1.1,0-2-.2-2.8-.7s-1.4-1.2-1.9-2.1c-.4-.9-.7-1.9-.7-3.1c0-1.8.5-3.3,1.4-4.3s2.3-1.5,4-1.5c1.6,0,2.9.5,3.9,1.6c1.1,1,1.5,2.4,1.5,4.2Zm-8.2,0c0,2.6,1,3.9,2.9,3.9s2.9-1.3,2.9-3.9-1-3.9-2.9-3.9c-1,0-1.7.3-2.2,1s-.7,1.7-.7,2.9Zm20.5,5.7h-2.4v-7c0-.9-.2-1.5-.5-1.9s-.8-.6-1.5-.6c-.9,0-1.6.3-2,.9s-.6,1.6-.6,3v5.6h-2.4v-11.3h1.9l.3,1.5h.1c.3-.5.8-1,1.4-1.2.6-.3,1.3-.4,2-.4c1.7,0,2.9.6,3.5,1.8h.2c.3-.6.8-1,1.4-1.3s1.3-.5,2.1-.5c1.4,0,2.3.3,3,1c.6.7.9,1.7.9,3.1v7.4h-2.4v-7c0-.9-.2-1.5-.5-1.9s-.8-.6-1.5-.6c-.9,0-1.6.3-2.1.9-.4.6-.6,1.5-.6,2.7v5.8h-.3Zm16.3.2c-1.4,0-2.5-.5-3.3-1.5h-.1c.1,1,.1,1.5.1,1.7v4.6h-2.4v-16.3h1.9c.1.2.2.7.3,1.5h.1c.7-1.1,1.9-1.7,3.4-1.7c1.4,0,2.5.5,3.3,1.5s1.2,2.5,1.2,4.3-.4,3.3-1.2,4.3c-.8,1.1-1.9,1.6-3.3,1.6Zm-.6-9.8c-1,0-1.7.3-2.1.8-.4.6-.7,1.5-.7,2.7v.4c0,1.4.2,2.4.7,3c.4.6,1.1.9,2.1.9.8,0,1.5-.3,1.9-1s.7-1.7.7-2.9c0-1.3-.2-2.2-.7-2.9-.4-.6-1-1-1.9-1Zm15,9.6l-.5-1.6h-.1c-.5.7-1.1,1.2-1.6,1.4-.6.2-1.3.4-2.1.4-1.1,0-2-.3-2.6-.9s-.9-1.4-.9-2.5c0-1.2.4-2,1.3-2.6s2.2-.9,4-1l2-.1v-.6c0-.7-.2-1.3-.5-1.6-.3-.4-.9-.5-1.6-.5-.6,0-1.1.1-1.7.3-.5.2-1,.4-1.5.6l-.8-1.7c.6-.3,1.3-.6,2-.7s1.4-.3,2.1-.3c1.4,0,2.5.3,3.3.9.7.6,1.1,1.6,1.1,3v7.6h-1.9v-.1Zm-3.6-1.7c.9,0,1.6-.2,2.1-.7s.8-1.2.8-2.1v-1l-1.5.1c-1.1,0-2,.2-2.5.6-.5.3-.8.9-.8,1.5c0,.5.1.9.4,1.2.4.3.9.4,1.5.4Zm18.6,1.7h-2.4v-7c0-.9-.2-1.5-.5-2-.4-.4-.9-.6-1.7-.6-1,0-1.8.3-2.2.9-.5.6-.7,1.6-.7,3v5.6h-2.4v-11.3h1.9l.3,1.5h.1c.3-.5.8-1,1.5-1.2.6-.3,1.3-.4,2.1-.4c2.7,0,4.1,1.4,4.1,4.1v7.4h-.1Zm1.6-11.3h2.6L277,107c.3.9.6,1.8.7,2.6h.1c.1-.4.2-.8.3-1.4.2-.5,1-3.1,2.6-7.6h2.6l-4.8,12.8c-.9,2.4-2.3,3.5-4.4,3.5-.5,0-1.1-.1-1.6-.2v-1.9c.4.1.8.1,1.2.1c1.2,0,2-.7,2.4-2l.4-1.1-4.4-11.2Z" clip-rule="evenodd" fill="#fafafa" fill-rule="evenodd"/><path d="M80,66.5v0-43.2c0,0,0,0,12.7,0c0,0,0,0,0,59.2c0,0,0,0-10.5,0c0,0,0,0-1.6-6.6-3.7,6-10.9,7.4-14.9,7.4-15,0-26.7-10.4-26.7-26.7c0,0,0,0,0-33.4c0,0,0,0,12.7,0c0,0,0,0,0,33.4c0,15.1,18.6,21,28.3,9.9v0ZM186.4,22.2c17.8,0,30.7,13.5,30.7,30.8c0,17.2-13,30.9-30.7,30.9s-30.9-13.7-30.9-30.9c0-17.3,13.2-30.8,30.9-30.8v0Zm0,50.2c9,0,18-6.3,18-19.4s-9-19.2-18-19.2c-8.7,0-18.2,6.1-18.2,19.2s9.4,19.4,18.2,19.4v0ZM272,63.9c0-29.8,0-29.8,0-29.8c11,0,11,0,11,0c0-10.7,0-10.7,0-10.7-11,0-11,0-11,0C272,7,272,7,272,7c-12.2,1.4-12.2,1.4-12.2,1.4c0,15.1,0,15.1,0,15.1-20.7,0-20.7,0-20.7,0c0-4.4,0-4.4,0-4.4c0-4.2,2.5-7.6,7.8-7.9c1.4-.1,2.8.1,4.5.5c0-10.7,0-10.7,0-10.7-2-.4-3.9-.5-5.6-.5-12-.1-19.4,6.8-19.4,18.6c0,4.4,0,4.4,0,4.4-8.4,0-8.4,0-8.4,0-.1,0-.1,0-.1,0c0,10.7,0,10.7,0,10.7c8.4,0,8.4,0,8.4,0c0,48.5,0,48.5,0,48.5c12.6,0,12.6,0,12.6,0c0-48.5,0-48.5,0-48.5c20.7,0,20.7,0,20.7,0c0,30.2,0,30.2,0,30.2c0,14.2,9.8,19.8,23.5,18.5c0-11.1,0-11.1,0-11.1-8.2,1.3-11.1-3.2-11.1-7.9v0ZM113.5,23.3v0h-14.8l19.7,29.6-20,29.7h13.6l20-29.7-18.5-29.6v0v0v0Zm42.4,0h-13.8L134.4,35L141,45.5l14.9-22.2v0v0ZM141,60.1l-6.9,10.1l8.2,12.4h13.8L141,60.1v0v0v0ZM18.7,71c-3,0-5.4-2.4-5.4-5.5c0-57.2,0-57.2,0-57.2C0.4,6.9,0.4,6.9,0.4,6.9c0,60,0,60,0,60c0,8.7,7,15.7,15.7,15.7c18.8,0,18.8,0,18.8,0c0-11.7,0-11.7,0-11.7h-16.2v-70.9" clip-rule="evenodd" fill="#fafafa" fill-rule="evenodd"/></svg>
