<svg width="99" height="23" viewBox="0 0 99 23" fill="none" xmlns="http://www.w3.org/2000/svg">
<path d="M10.8828 5.55609C10.627 4.2791 10.1621 3.36508 9.48835 2.81402C8.81457 2.26296 7.89774 1.98943 6.73786 1.99344C6.05238 1.98114 5.37047 2.09492 4.72613 2.32913C4.19707 2.51688 3.72828 2.84354 3.36893 3.27484C3.04369 3.67999 2.87007 4.18595 2.87803 4.70543C2.87803 5.26692 3.02562 5.71411 3.3208 6.04699C3.61599 6.37987 4.06879 6.66062 4.6792 6.88922C5.53898 7.18108 6.41673 7.41699 7.30697 7.59549C8.87914 7.9388 10.1264 8.33385 11.0489 8.78064C11.9713 9.22742 12.6419 9.78009 13.0606 10.4386C13.4793 11.0972 13.6887 11.9174 13.6887 12.8992C13.6985 13.8564 13.4118 14.7932 12.8681 15.5811C12.2945 16.4016 11.5107 17.0528 10.5989 17.4665C9.57455 17.938 8.45732 18.1732 7.32983 18.1547C5.23067 18.1547 3.55262 17.6638 2.29569 16.682C1.03875 15.7002 0.273525 14.2664 0 12.3806L2.28606 11.8416C2.44649 13.2782 2.9434 14.3578 3.77681 15.0805C4.61022 15.8033 5.76167 16.1642 7.23117 16.1634C7.95422 16.1712 8.6725 16.0456 9.34999 15.7928C9.942 15.5826 10.4713 15.2263 10.8889 14.7569C11.2555 14.3469 11.4581 13.8161 11.458 13.2661C11.458 12.5322 11.2783 11.9595 10.9189 11.548C10.5596 11.1365 10.025 10.8072 9.31509 10.5602C8.46921 10.2817 7.60985 10.046 6.74027 9.85388C6.06969 9.70228 5.59884 9.58637 5.32772 9.50616C4.10608 9.17889 3.15436 8.78384 2.47255 8.32102C1.79075 7.85819 1.31549 7.3336 1.04677 6.74725C0.764854 6.0874 0.628208 5.37463 0.646113 4.65731C0.639912 3.79876 0.915491 2.96188 1.43059 2.27499C1.99086 1.53534 2.73855 0.958792 3.59633 0.604963C4.5749 0.191718 5.62882 -0.013165 6.69094 0.00336797C7.89413 0.00336797 8.95975 0.2039 9.88781 0.604963C10.7742 0.973307 11.5454 1.57292 12.1209 2.34117C12.7 3.14099 13.0611 4.07763 13.1689 5.05917L10.9298 5.5621H10.8816L10.8828 5.55609Z" fill="white"/>
<path d="M20.0246 2.74081H17.8685V0.29834H20.0234V2.74081H20.0246ZM20.0246 17.8505H17.8685V5.14719H20.0234V17.8517L20.0246 17.8505Z" fill="white"/>
<path d="M37.726 4.86096C39.0832 4.86096 40.1128 5.2163 40.8146 5.92699C41.5165 6.63767 41.8686 7.67522 41.871 9.03964V17.8518H39.7137V9.69297C39.7137 8.61571 39.522 7.84928 39.1386 7.39367C38.7552 6.93807 38.1684 6.71066 37.3783 6.71147C36.8289 6.704 36.2888 6.85343 35.8214 7.14221C35.3626 7.43338 34.9956 7.88257 34.7205 8.48978C34.4453 9.09699 34.3098 9.8554 34.3138 10.765V17.853H32.1589V9.50647C32.1589 8.55676 31.9632 7.8545 31.5717 7.39969C31.1803 6.94488 30.5975 6.71748 29.8235 6.71748C29.2852 6.71193 28.7554 6.85248 28.2906 7.12416C27.8278 7.39528 27.4568 7.83244 27.1777 8.43564C26.8985 9.03884 26.759 9.81489 26.759 10.7638V17.8518H24.6028V5.14732H26.6146V6.92563C27.5081 5.55239 28.6973 4.86577 30.182 4.86577C31.1959 4.86577 32.0141 5.05146 32.6365 5.42285C33.2694 5.80659 33.7511 6.39621 34.001 7.09288C34.528 6.26268 35.0826 5.68394 35.665 5.35667C36.2973 5.01527 37.0076 4.84442 37.726 4.86096Z" fill="white"/>
<path d="M48.6148 16.4033H48.5547V22.7128H46.3998V5.14627H48.4115V6.76215H48.4596C48.8747 6.16857 49.427 5.68399 50.0695 5.34961C50.7437 5.0132 51.4892 4.84478 52.2425 4.85871C53.3839 4.85871 54.3817 5.13023 55.236 5.67327C56.1071 6.23582 56.794 7.04153 57.2116 7.99061C57.6745 8.99247 57.9059 10.164 57.9059 11.5051C57.9059 12.8302 57.6785 13.9933 57.2237 14.9944C56.8173 15.9386 56.1493 16.7468 55.2986 17.3238C54.4409 17.883 53.4346 18.1711 52.4109 18.1503C50.8219 18.1503 49.5565 17.568 48.6148 16.4033ZM52.0512 6.62138C51.3598 6.60864 50.6834 6.8234 50.1261 7.2326C49.5542 7.66249 49.1124 8.24213 48.8495 8.90744C48.5439 9.67231 48.3934 10.4903 48.4067 11.3138C48.4067 12.367 48.5603 13.273 48.8675 14.0318C49.1747 14.7906 49.6099 15.3714 50.173 15.774C50.7523 16.1811 51.4468 16.392 52.1546 16.3756C52.8436 16.3932 53.5177 16.1736 54.0641 15.7536C54.6203 15.3031 55.0392 14.7058 55.2733 14.0294C55.5621 13.2148 55.7019 12.3548 55.686 11.4907C55.686 10.4768 55.5344 9.60288 55.2312 8.86894C54.928 8.13499 54.5029 7.57631 53.9558 7.1929C53.3964 6.80756 52.7303 6.60726 52.0512 6.62018V6.62138Z" fill="white"/>
<path d="M63.8256 17.8517H61.6707V0.29834H63.8256V17.8517Z" fill="white"/>
<path d="M70.5611 2.74081H68.405V0.29834H70.5599V2.74081H70.5611ZM70.5611 17.8505H68.405V5.14719H70.5599V17.8517L70.5611 17.8505Z" fill="white"/>
<path d="M79.39 1.87216C78.9032 1.87216 78.5398 1.94997 78.3 2.10558C78.0708 2.2473 77.9055 2.47248 77.8391 2.73365C77.7614 3.08915 77.7271 3.45276 77.7369 3.81652V5.15687H80.1914V6.82088H77.7381V17.8601H75.5819V6.81246H73.6665V5.14725H75.5819V3.63965C75.5819 2.38673 75.8575 1.46669 76.4085 0.879533C76.9596 0.292376 77.8576 -0.000800485 79.1025 1.64146e-06C79.9177 0.00227651 80.7297 0.102867 81.5209 0.299596L81.0541 2.13205C80.5153 1.96334 79.9545 1.87575 79.39 1.87216Z" fill="white"/>
<path d="M86.9028 12.4758C87.1498 13.1624 87.3275 13.6838 87.4358 14.0399C87.5441 14.3961 87.6696 14.8629 87.8124 15.4405H87.8605C88.0209 14.7306 88.1465 14.2256 88.2371 13.9256C88.3277 13.6256 88.5451 13.0052 88.8892 12.0643L91.4159 5.14355H93.6081L88.4585 18.7973C88.043 19.8987 87.6419 20.7509 87.2553 21.3541C86.8687 21.9573 86.4596 22.3821 86.028 22.6283C85.5475 22.8851 85.0086 23.0128 84.4639 22.9989C84.1713 22.9928 83.8794 22.9667 83.5904 22.9207C83.231 22.8685 82.9238 22.8148 82.6687 22.7595L83.1115 20.9402C83.4204 21.0626 83.7491 21.1274 84.0813 21.1315C84.4906 21.148 84.8935 21.0254 85.2243 20.7838C85.5368 20.5358 85.7869 20.2181 85.9546 19.8562C86.1423 19.4687 86.316 19.0637 86.4756 18.6409C86.6352 18.2182 86.7311 17.9627 86.7632 17.8745L81.9372 5.14716H84.2593L86.9028 12.4758Z" fill="white"/>
<path d="M96.3658 17.8505C97.7666 17.8505 98.9022 16.7149 98.9022 15.3142C98.9022 13.9134 97.7666 12.7778 96.3658 12.7778C94.9651 12.7778 93.8295 13.9134 93.8295 15.3142C93.8295 16.7149 94.9651 17.8505 96.3658 17.8505Z" fill="#EF0113"/>
</svg>
