<svg width="449" height="72" viewBox="0 0 449 72" fill="none" xmlns="http://www.w3.org/2000/svg">
<path d="M42.2114 35.7493C42.2114 39.004 39.5946 41.6236 36.3435 41.6236C33.0924 41.6236 30.4756 39.004 30.4756 35.7493C30.4756 32.4946 33.1188 29.875 36.3435 29.875C39.5682 29.875 42.2114 32.4946 42.2114 35.7493Z" fill="#333333"/>
<path d="M46.9165 25.6935L46.9693 25.6406C46.8372 25.5083 46.7314 25.376 46.5993 25.2437L25.7973 4.41896C22.9427 1.56119 19.1365 0 15.1188 0C11.0747 0 7.29493 1.58765 4.44028 4.41896C-1.45405 10.3197 -1.45405 19.925 4.44028 25.7993L14.6166 35.9868L4.44028 46.1742C-1.45405 52.075 -1.45405 61.6803 4.44028 67.5546C7.29493 70.4123 11.1011 72 15.1188 72C19.1629 72 22.9427 70.4123 25.7973 67.5546L46.5993 46.7299C52.3879 40.9614 52.4672 31.6207 46.9165 25.6935ZM7.69141 22.5447C3.59446 18.4432 3.59446 11.7751 7.69141 7.67365C9.75311 5.6097 12.4227 4.60419 15.1188 4.60419C17.8149 4.60419 20.4845 5.63616 22.5462 7.67365L35.7886 20.9305C31.7974 20.957 28.0705 22.5182 25.2423 25.3495L17.8677 32.7321L7.69141 22.5447ZM43.3482 43.5017L22.5462 64.3263C20.4845 66.3903 17.8149 67.3958 15.1188 67.3958C12.4227 67.3958 9.75311 66.3638 7.69141 64.3263C3.59446 60.2249 3.59446 53.5568 7.69141 49.4553L28.4934 28.6306C30.5551 26.5667 33.2247 25.5612 35.9208 25.5612C38.6168 25.5612 41.2865 26.5932 43.3482 28.6306C47.4451 32.7321 47.4451 39.3738 43.3482 43.5017Z" fill="#333333"/>
<path d="M89.1547 55.4895C84.9784 55.4895 79.9828 54.6956 76.2559 53.2138L77.181 48.6361C81.1458 49.8798 85.322 50.5148 89.2868 50.5148C96.2649 50.5148 97.6922 48.689 97.6922 43.7408C97.6922 37.8665 97.6393 37.3373 88.7053 35.3263C78.2118 32.9713 76.9695 30.9602 76.9695 21.9635C76.9695 14.3957 80.0885 10.7441 90.8463 10.7441C94.6261 10.7441 99.1195 11.2734 102.582 12.173L102.133 16.936C98.6702 16.1422 94.5732 15.6923 91.0049 15.6923C83.8947 15.6923 82.5995 17.1212 82.5995 22.1488C82.5995 28.1554 82.5995 28.42 91.1899 30.5633C102.714 33.4211 103.296 35.1411 103.296 43.6085C103.269 51.1763 101.075 55.4895 89.1547 55.4895Z" fill="#333333"/>
<path d="M137.525 45.1164C137.525 51.4406 134.67 55.4891 127.243 55.4891C124.441 55.4891 120.741 55.0392 118.203 54.51V67.6875L112.732 68.4813V23.101H117.358L117.807 25.9587C120.424 23.8683 124.124 22.4395 128.3 22.4395C134.565 22.4395 137.552 25.7735 137.552 32.1506V45.1164H137.525ZM118.203 49.6677C121.137 50.2498 124.706 50.6467 126.926 50.6467C130.574 50.6467 132.08 48.9532 132.08 45.1164V32.1506C132.08 28.8959 131.049 27.2553 127.19 27.2553C124.071 27.2553 120.556 28.9488 118.203 31.0392V49.6677Z" fill="#333333"/>
<path d="M158.169 50.7782C161.288 50.7782 164.75 50.196 168.186 49.2699L168.9 53.6359C165.913 54.7473 161.658 55.4617 157.693 55.4617C148.31 55.4617 145.111 50.9634 145.111 43.7925V34.2666C145.111 27.6778 148.098 22.4121 157.561 22.4121C166.944 22.4121 169.482 27.8101 169.482 34.3989V41.0406H150.583V43.7131C150.636 48.7671 151.984 50.7782 158.169 50.7782ZM150.636 36.5157H164.248V33.8961C164.248 29.4507 162.741 26.9898 157.614 26.9898C152.459 26.9898 150.636 29.4772 150.636 33.8961V36.5157Z" fill="#333333"/>
<path d="M189.517 50.7782C192.636 50.7782 196.098 50.196 199.535 49.2699L200.248 53.6359C197.261 54.7473 193.006 55.4617 189.041 55.4617C179.658 55.4617 176.459 50.9634 176.459 43.7925V34.2666C176.459 27.6778 179.446 22.4121 188.909 22.4121C198.292 22.4121 200.83 27.8101 200.83 34.3989V41.0406H181.931V43.7131C181.957 48.7671 183.332 50.7782 189.517 50.7782ZM181.957 36.5157H195.57V33.8961C195.57 29.4507 194.063 26.9898 188.935 26.9898C183.781 26.9898 181.957 29.4772 181.957 33.8961V36.5157Z" fill="#333333"/>
<path d="M208.257 32.7844C208.257 26.4602 211.112 22.4117 218.539 22.4117C221.341 22.4117 225.042 22.8615 227.579 23.3907V10.0809L233.051 9.28711V54.7998H228.425L227.976 51.942C225.359 54.0324 221.658 55.4613 217.482 55.4613C211.218 55.4613 208.231 52.1272 208.231 45.7502L208.257 32.7844ZM227.606 28.2331C224.672 27.6509 221.103 27.254 218.883 27.254C215.235 27.254 213.729 28.9475 213.729 32.7844V45.7502C213.729 49.0049 214.76 50.6454 218.619 50.6454C221.738 50.6454 225.253 48.9519 227.606 46.8615V28.2331Z" fill="#333333"/>
<path d="M268.311 45.1164C268.311 51.4406 265.456 55.4891 258.029 55.4891C255.227 55.4891 251.526 55.0392 248.989 54.51V67.6875L243.518 68.4813V23.101H248.143L248.593 25.9587C251.209 23.8683 254.91 22.4395 259.086 22.4395C265.35 22.4395 268.337 25.7735 268.337 32.1506L268.311 45.1164ZM248.963 49.6677C251.897 50.2498 255.465 50.6467 257.685 50.6467C261.333 50.6467 262.839 48.9532 262.839 45.1164V32.1506C262.839 28.8959 261.809 27.2553 257.949 27.2553C254.83 27.2553 251.315 28.9488 248.963 31.0392V49.6677Z" fill="#333333"/>
<path d="M288.954 50.7782C292.073 50.7782 295.535 50.196 298.972 49.2699L299.685 53.6359C296.698 54.7473 292.443 55.4617 288.478 55.4617C279.095 55.4617 275.896 50.9634 275.896 43.7925V34.2666C275.896 27.6778 278.883 22.4121 288.346 22.4121C297.729 22.4121 300.267 27.8101 300.267 34.3989V41.0406H281.368V43.7131C281.394 48.7671 282.769 50.7782 288.954 50.7782ZM281.394 36.5157H295.007V33.8961C295.007 29.4507 293.5 26.9898 288.372 26.9898C283.218 26.9898 281.394 29.4772 281.394 33.8961V36.5157Z" fill="#333333"/>
<path d="M323.421 27.4406C320.435 28.8694 316.972 31.0922 314.382 32.918V54.8275H308.91V23.0745H313.668L313.985 27.5199C316.338 25.6941 319.589 23.736 322.708 22.4395L323.421 27.4406Z" fill="#333333"/>
<path d="M346.602 13.945C344.911 13.6275 342.69 13.3629 341.316 13.3629C337.933 13.3629 337.087 14.5272 337.087 17.7289V23.074H346.126L345.677 27.6253H337.087V54.8006H331.615V27.6253H326.012V23.074H331.615V17.1997C331.615 11.59 334.734 8.78516 340.602 8.78516C342.69 8.78516 344.911 9.04976 347.052 9.68482L346.602 13.945Z" fill="#333333"/>
<path d="M362.885 55.4891C353.633 55.4891 349.986 50.1969 349.986 43.5552V34.3733C349.986 27.7316 353.633 22.4395 362.885 22.4395C372.136 22.4395 375.783 27.7316 375.783 34.3733V43.5552C375.757 50.1969 372.136 55.4891 362.885 55.4891ZM362.885 27.1759C357.942 27.1759 355.457 29.531 355.457 34.1616V43.7404C355.457 48.3711 357.942 50.7261 362.885 50.7261C367.827 50.7261 370.312 48.3711 370.312 43.7404V34.1616C370.312 29.531 367.827 27.1759 362.885 27.1759Z" fill="#333333"/>
<path d="M399.096 27.4406C396.109 28.8694 392.647 31.0922 390.056 32.918V54.8275H384.585V23.0745H389.343L389.66 27.5199C392.012 25.6941 395.263 23.736 398.382 22.4395L399.096 27.4406Z" fill="#333333"/>
<path d="M442.92 54.8267V30.5621C442.92 28.4716 441.889 27.6249 439.854 27.6249C437.237 27.6249 432.612 29.0538 429.228 30.8267V54.8267H423.757V30.5621C423.757 28.4716 422.726 27.6249 420.691 27.6249C418.338 27.6249 413.475 29.0538 410.065 30.8267V54.8267H404.594V23.0736H409.034L409.563 25.7991C413.078 24.1056 418.55 22.4121 422.33 22.4121C425.581 22.4121 427.484 23.6558 428.383 25.7991C432.162 23.9733 437.502 22.4121 441.466 22.4121C446.541 22.4121 448.365 25.6139 448.365 30.5091V54.8267H442.92Z" fill="#333333"/>
</svg>
